<svg width="197" height="193" viewBox="0 0 197 193" fill="none" xmlns="http://www.w3.org/2000/svg">
<path d="M110.686 115.632H84.2764V162.18H110.686V115.632Z" fill="#EBECEF"/>
<path d="M110.686 115.632H84.2764V162.18H110.686V115.632Z" stroke="black" stroke-width="1.03301" stroke-linecap="round" stroke-linejoin="round"/>
<path d="M176.41 187.231C176.41 190.008 164.022 192.251 148.75 192.251C133.478 192.251 121.09 190.008 121.09 187.231C121.09 184.454 133.478 182.212 148.75 182.212C164.022 182.212 176.41 184.454 176.41 187.231Z" fill="black"/>
<path d="M176.41 187.231C176.41 190.008 164.022 192.251 148.75 192.251C133.478 192.251 121.09 190.008 121.09 187.231C121.09 184.454 133.478 182.212 148.75 182.212C164.022 182.212 176.41 184.454 176.41 187.231Z" stroke="black" stroke-width="1.03301" stroke-linecap="round" stroke-linejoin="round"/>
<path d="M116.681 180.442C116.681 183.219 94.7724 192.235 94.7724 192.235C79.5005 192.235 71.0789 189.993 71.0789 187.216C71.0789 184.439 83.4672 182.212 98.7391 182.212C114.011 182.212 116.681 177.665 116.681 180.442Z" fill="black"/>
<path d="M116.681 180.442C116.681 183.219 94.7724 192.235 94.7724 192.235C79.5005 192.235 71.0789 189.993 71.0789 187.216C71.0789 184.439 83.4672 182.212 98.7391 182.212C114.011 182.212 116.681 177.665 116.681 180.442Z" stroke="black" stroke-width="1.03301" stroke-linecap="round" stroke-linejoin="round"/>
<path d="M193.558 181.479C193.558 183.264 155.493 184.714 108.549 184.714C61.6039 184.714 23.5386 183.264 23.5386 181.479C23.5386 179.694 61.5886 178.245 108.549 178.245C155.508 178.245 193.558 179.694 193.558 181.479Z" fill="black"/>
<path d="M193.558 181.479C193.558 183.264 155.493 184.714 108.549 184.714C61.6039 184.714 23.5386 183.264 23.5386 181.479C23.5386 179.694 61.5886 178.245 108.549 178.245C155.508 178.245 193.558 179.694 193.558 181.479Z" stroke="black" stroke-width="1.03301" stroke-linecap="round" stroke-linejoin="round"/>
<path d="M80.7515 157.481H30.3589C30.3589 157.481 30.1758 180.595 30.1758 180.686C30.1758 181.861 40.8554 182.822 54.0371 182.822C67.2189 182.822 77.334 181.922 77.8527 180.778H80.7667V157.481H80.7515Z" fill="#EBECEF"/>
<path d="M80.7515 157.481H30.3589C30.3589 157.481 30.1758 180.595 30.1758 180.686C30.1758 181.861 40.8554 182.822 54.0371 182.822C67.2189 182.822 77.334 181.922 77.8527 180.778H80.7667V157.481H80.7515Z" stroke="black" stroke-width="1.03301" stroke-linecap="round" stroke-linejoin="round"/>
<path d="M39.132 169.076C39.132 169.076 55.7464 171.166 63.4358 169.289L65.4801 173.943C65.4801 173.943 45.6465 175.941 39.132 173.348V169.076Z" fill="white"/>
<path d="M39.132 169.076C39.132 169.076 55.7464 171.166 63.4358 169.289L65.4801 173.943C65.4801 173.943 45.6465 175.941 39.132 173.348V169.076Z" stroke="black" stroke-width="1.03301" stroke-linecap="round" stroke-linejoin="round"/>
<path d="M77.8985 157.603C77.8985 158.778 67.2188 159.739 54.0371 159.739C40.8554 159.739 30.1758 158.778 30.1758 157.603C30.1758 156.428 40.8554 155.467 54.0371 155.467C67.2188 155.467 77.8985 156.428 77.8985 157.603Z" fill="#EBECEF"/>
<path d="M77.8985 157.603C77.8985 158.778 67.2188 159.739 54.0371 159.739C40.8554 159.739 30.1758 158.778 30.1758 157.603C30.1758 156.428 40.8554 155.467 54.0371 155.467C67.2188 155.467 77.8985 156.428 77.8985 157.603Z" stroke="black" stroke-width="1.03301" stroke-linecap="round" stroke-linejoin="round"/>
<path d="M41.8024 159.205L46.3183 122.467L53.8856 121.033L62.9786 159.174C62.9786 159.174 52.0853 160.334 41.8024 159.205Z" fill="#F56900"/>
<mask id="mask0_57_5064" style="mask-type:luminance" maskUnits="userSpaceOnUse" x="41" y="121" width="22" height="39">
<path d="M46.3174 122.467L41.8014 159.205C52.0844 160.318 62.9776 159.174 62.9776 159.174L53.8846 121.048L46.3174 122.482V122.467Z" fill="white"/>
</mask>
<g mask="url(#mask0_57_5064)">
<path d="M43.7862 142.133C44.0303 143.414 47.5241 143.826 51.5976 143.048C55.6711 142.27 58.7682 140.592 58.5241 139.31L56.9069 132.185C57.1052 133.238 54.5726 134.611 51.2467 135.252C47.9207 135.893 45.0525 135.557 44.8542 134.504" fill="white"/>
<path d="M43.7862 142.133C44.0303 143.414 47.5241 143.826 51.5976 143.048C55.6711 142.27 58.7682 140.592 58.5241 139.31L56.9069 132.185C57.1052 133.238 54.5726 134.611 51.2467 135.252C47.9207 135.893 45.0525 135.557 44.8542 134.504" stroke="black" stroke-width="1.03301" stroke-linecap="round" stroke-linejoin="round"/>
<path d="M40.5665 164.774C40.9785 166.909 46.7912 167.596 53.5499 166.299C60.3086 165.002 65.4653 162.226 65.0534 160.09L62.3835 148.251C62.7191 150.005 58.5083 152.278 52.9702 153.331C47.432 154.384 42.6872 153.835 42.3516 152.08" fill="white"/>
<path d="M40.5665 164.774C40.9785 166.909 46.7912 167.596 53.5499 166.299C60.3086 165.002 65.4653 162.226 65.0534 160.09L62.3835 148.251C62.7191 150.005 58.5083 152.278 52.9702 153.331C47.432 154.384 42.6872 153.835 42.3516 152.08" stroke="black" stroke-width="1.03301" stroke-linecap="round" stroke-linejoin="round"/>
</g>
<path d="M41.8024 159.205L46.3183 122.467L53.8856 121.033L62.9786 159.174C62.9786 159.174 52.0853 160.334 41.8024 159.205Z" stroke="black" stroke-width="1.03301" stroke-linecap="round" stroke-linejoin="round"/>
<path d="M138.726 157.481H189.119C189.119 157.481 189.302 180.595 189.302 180.686C189.302 181.861 178.622 182.822 165.441 182.822C152.259 182.822 142.144 181.922 141.625 180.778H138.711V157.481H138.726Z" fill="#EBECEF"/>
<path d="M138.726 157.481H189.119C189.119 157.481 189.302 180.595 189.302 180.686C189.302 181.861 178.622 182.822 165.441 182.822C152.259 182.822 142.144 181.922 141.625 180.778H138.711V157.481H138.726Z" stroke="black" stroke-width="1.03301" stroke-linecap="round" stroke-linejoin="round"/>
<path d="M141.596 157.603C141.596 158.778 152.275 159.739 165.457 159.739C178.639 159.739 189.318 158.778 189.318 157.603C189.318 156.428 178.639 155.467 165.457 155.467C152.275 155.467 141.596 156.428 141.596 157.603Z" fill="#EBECEF"/>
<path d="M141.596 157.603C141.596 158.778 152.275 159.739 165.457 159.739C178.639 159.739 189.318 158.778 189.318 157.603C189.318 156.428 178.639 155.467 165.457 155.467C152.275 155.467 141.596 156.428 141.596 157.603Z" stroke="black" stroke-width="1.03301" stroke-linecap="round" stroke-linejoin="round"/>
<path d="M130.548 167.931C130.548 167.931 165.913 161.737 161.702 147.137C161.199 145.382 157.095 134.55 156.454 132.963C152.136 122.268 123.469 148.586 123.469 148.586L127.1 159.8L130.548 167.916V167.931Z" fill="#EBECEF"/>
<path d="M130.548 167.931C130.548 167.931 165.913 161.737 161.702 147.137C161.199 145.382 157.095 134.55 156.454 132.963C152.136 122.268 123.469 148.586 123.469 148.586L127.1 159.8L130.548 167.916V167.931Z" stroke="black" stroke-width="1.03301" stroke-linecap="round" stroke-linejoin="round"/>
<path d="M124.523 151.47C124.523 151.47 159.888 145.275 155.677 130.675C151.466 116.074 117.444 132.139 117.444 132.139L121.075 143.353L124.523 151.47Z" fill="#EBECEF"/>
<path d="M124.523 151.47C124.523 151.47 159.888 145.275 155.677 130.675C151.466 116.074 117.444 132.139 117.444 132.139L121.075 143.353L124.523 151.47Z" stroke="black" stroke-width="1.03301" stroke-linecap="round" stroke-linejoin="round"/>
<path d="M176.635 117.66L153.792 160.531L157.521 162.518L180.364 119.647L176.635 117.66Z" fill="#EBECEF"/>
<path d="M176.635 117.66L153.792 160.531L157.521 162.518L180.364 119.647L176.635 117.66Z" stroke="black" stroke-width="1.03301" stroke-linecap="round" stroke-linejoin="round"/>
<path d="M179.63 124.389L171.071 124.542L168.432 122.284L182.239 95.9049L193.483 97.2017L196.123 99.4597L179.63 124.389Z" fill="#EBECEF"/>
<path d="M179.63 124.389L171.071 124.542L168.432 122.284L182.239 95.9049L193.483 97.2017L196.123 99.4597L179.63 124.389Z" stroke="black" stroke-width="1.03301" stroke-linecap="round" stroke-linejoin="round"/>
<path d="M182.909 125.411L171.07 124.542L184.877 98.1631L196.121 99.4599L182.909 125.411Z" fill="#EBECEF"/>
<path d="M182.909 125.411L171.07 124.542L184.877 98.1631L196.121 99.4599L182.909 125.411Z" stroke="black" stroke-width="1.03301" stroke-linecap="round" stroke-linejoin="round"/>
<path d="M177.387 119.538C176.654 120.941 177.249 122.116 178.714 122.177C180.179 122.238 181.964 121.155 182.696 119.766C183.428 118.378 182.833 117.188 181.369 117.127C179.904 117.066 178.119 118.149 177.387 119.538Z" fill="#BCBCBC"/>
<path d="M177.387 119.538C176.654 120.941 177.249 122.116 178.714 122.177C180.179 122.238 181.964 121.155 182.696 119.766C183.428 118.378 182.833 117.188 181.369 117.127C179.904 117.066 178.119 118.149 177.387 119.538Z" stroke="black" stroke-width="1.03301" stroke-linecap="round" stroke-linejoin="round"/>
<path d="M181.217 112.23C180.485 113.633 181.08 114.808 182.544 114.869C184.009 114.93 185.794 113.847 186.526 112.458C187.259 111.07 186.664 109.88 185.199 109.819C183.734 109.758 181.949 110.841 181.217 112.23Z" fill="#BCBCBC"/>
<path d="M181.217 112.23C180.485 113.633 181.08 114.808 182.544 114.869C184.009 114.93 185.794 113.847 186.526 112.458C187.259 111.07 186.664 109.88 185.199 109.819C183.734 109.758 181.949 110.841 181.217 112.23Z" stroke="black" stroke-width="1.03301" stroke-linecap="round" stroke-linejoin="round"/>
<path d="M185.198 104.601C184.466 106.005 185.061 107.18 186.525 107.241C187.99 107.302 189.775 106.218 190.507 104.83C191.239 103.442 190.644 102.252 189.18 102.191C187.715 102.13 185.93 103.213 185.198 104.601Z" fill="#D70036"/>
<path d="M185.198 104.601C184.466 106.005 185.061 107.18 186.525 107.241C187.99 107.302 189.775 106.218 190.507 104.83C191.239 103.442 190.644 102.252 189.18 102.191C187.715 102.13 185.93 103.213 185.198 104.601Z" stroke="black" stroke-width="1.03301" stroke-linecap="round" stroke-linejoin="round"/>
<path d="M182.238 95.9049L184.878 98.1629" stroke="black" stroke-width="1.03301" stroke-linecap="round" stroke-linejoin="round"/>
<path d="M110.685 163.248C110.685 163.248 114.331 141.354 121.99 136.503C121.99 136.503 134.546 129.469 144.844 135.618C152.64 140.271 150.504 162.592 143.12 171.883L124.614 166.757C124.614 166.757 130.518 145.169 128.352 139.691C128.352 139.691 130.533 142.85 126.079 160.868C122.57 175.056 110.7 163.232 110.7 163.232" fill="#EBECEF"/>
<path d="M110.685 163.248C110.685 163.248 114.331 141.354 121.99 136.503C121.99 136.503 134.546 129.469 144.844 135.618C152.64 140.271 150.504 162.592 143.12 171.883L124.614 166.757C124.614 166.757 130.518 145.169 128.352 139.691C128.352 139.691 130.533 142.85 126.079 160.868C122.57 175.056 110.7 163.232 110.7 163.232L110.685 163.248Z" stroke="black" stroke-width="1.03301" stroke-linecap="round" stroke-linejoin="round"/>
<path d="M117.383 141.965C119.809 136.808 125.332 132.475 128.337 139.707Z" fill="#EBECEF"/>
<path d="M117.383 141.965C119.809 136.808 125.332 132.475 128.337 139.707" stroke="black" stroke-width="1.03301" stroke-linecap="round" stroke-linejoin="round"/>
<path d="M92.6368 141.385L59.8198 141.019L81.7893 70.2892L114.606 70.6401L92.6368 141.385Z" fill="#EBECEF"/>
<path d="M92.6368 141.385L59.8198 141.019L81.7893 70.2892L114.606 70.6401L92.6368 141.385Z" stroke="black" stroke-width="1.03301" stroke-linecap="round" stroke-linejoin="round"/>
<path d="M125.454 66.3682L92.5299 66.002L92.6062 16.8147L125.545 17.1656L125.454 66.3682Z" fill="#EBECEF"/>
<path d="M125.454 66.3682L92.5299 66.002L92.6062 16.8147L125.545 17.1656L125.454 66.3682Z" stroke="black" stroke-width="1.03301" stroke-linecap="round" stroke-linejoin="round"/>
<path d="M46.3017 102.496C49.3225 98.6054 69.568 95.4015 74.0687 93.8301C80.0646 91.7399 97.9606 80.2974 102.934 80.0838C106.672 79.9313 117.581 80.7856 117.581 80.7856C120.174 81.4112 122.768 82.0367 125.361 82.6775C129.298 83.6386 133.631 85.6067 137.735 85.2864C142.266 84.9355 144.341 79.321 142.098 75.6747C140.725 73.4472 138.147 72.2572 135.629 71.5401C130.411 70.045 125.3 68.3515 120.159 66.5817L105.772 63.9271L111.737 52.0727C111.737 52.0727 99.8524 32.7426 99.2422 32.0255C98.6166 31.3084 91.3545 28.4402 91.3545 28.4402L72.6346 31.3542L65.7234 32.4069L54.8912 39.9437L49.6124 47.7551L43.7081 54.8494C43.7081 54.8494 42.8232 59.045 36.6442 64.2017C30.4653 69.3584 37.5902 65.2391 28.8023 70.8231C31.7164 69.4347 23.2337 74.3474 28.8023 70.8231" fill="#FFCCAD"/>
<path d="M46.3017 102.496C49.3225 98.6054 69.568 95.4015 74.0687 93.8301C80.0646 91.7399 97.9606 80.2974 102.934 80.0838C106.672 79.9313 117.581 80.7856 117.581 80.7856C120.174 81.4112 122.768 82.0367 125.361 82.6775C129.298 83.6386 133.631 85.6067 137.735 85.2864C142.266 84.9355 144.341 79.321 142.098 75.6747C140.725 73.4472 138.147 72.2572 135.629 71.5401C130.411 70.045 125.3 68.3515 120.159 66.5817L105.772 63.9271L111.737 52.0727C111.737 52.0727 99.8524 32.7426 99.2422 32.0255C98.6166 31.3084 91.3545 28.4402 91.3545 28.4402L72.6346 31.3542L65.7234 32.4069L54.8912 39.9437L49.6124 47.7551L43.7081 54.8494C43.7081 54.8494 42.8232 59.045 36.6442 64.2017C30.4653 69.3584 37.5902 65.2391 28.8023 70.8231M28.8023 70.8231C23.2337 74.3474 31.7164 69.4347 28.8023 70.8231Z" stroke="black" stroke-width="1.03301" stroke-linecap="round" stroke-linejoin="round"/>
<path d="M100.174 65.4833L123.272 60.9215C128.826 60.4791 134.41 61.1504 139.704 62.9049C144.906 64.6289 149.163 66.0783 149.941 66.2308C160.163 68.2295 161.459 55.7038 153.984 53.4L136.484 46.9922C130.016 44.6732 123.562 44.3071 116.758 45.3293L102.645 47.4194" fill="#FFCCAD"/>
<path d="M100.174 65.4833L123.272 60.9215C128.826 60.4791 134.41 61.1504 139.704 62.9049C144.906 64.6289 149.163 66.0783 149.941 66.2308C160.163 68.2295 161.459 55.7038 153.984 53.4L136.484 46.9922C130.016 44.6732 123.562 44.3071 116.758 45.3293L102.645 47.4194" stroke="black" stroke-width="1.03301" stroke-linecap="round" stroke-linejoin="round"/>
<path d="M98.9066 52.9729C102.858 51.9202 106.825 50.8522 110.776 49.7995L119.762 47.4042C120.937 47.0839 122.127 46.7787 123.302 46.4583C125.163 45.9549 126.262 45.8633 128.199 46.1532C129.13 46.2905 130.061 46.4278 130.991 46.5651C136.85 47.4348 142.754 48.3044 148.75 48.2891C152.015 48.2891 156.622 47.8619 157.828 44.2614C158.667 41.7746 157.782 38.708 155.753 37.1213C152.595 34.6497 147.804 33.9784 143.807 33.3682C138.864 32.6206 131.052 30.5762 126.124 31.2017C122.554 31.6594 118.984 32.1324 115.414 32.5901L99.5627 38.5096" fill="#FFCCAD"/>
<path d="M98.9066 52.9729C102.858 51.9202 106.825 50.8522 110.776 49.7995L119.762 47.4042C120.937 47.0839 122.127 46.7787 123.302 46.4583C125.163 45.9549 126.262 45.8633 128.199 46.1532C129.13 46.2905 130.061 46.4278 130.991 46.5651C136.85 47.4348 142.754 48.3044 148.75 48.2891C152.015 48.2891 156.622 47.8619 157.828 44.2614C158.667 41.7746 157.782 38.708 155.753 37.1213C152.595 34.6497 147.804 33.9784 143.807 33.3682C138.864 32.6206 131.052 30.5762 126.124 31.2017C122.554 31.6594 118.984 32.1324 115.414 32.5901L99.5627 38.5096" stroke="black" stroke-width="1.03301" stroke-linecap="round" stroke-linejoin="round"/>
<path d="M95.2914 36.816L115.079 31.4304C117.734 30.7286 130.961 32.0407 134.135 32.239C138.361 32.4984 144.586 33.1087 147.027 28.73C148.659 25.8007 147.789 22.0629 145.364 19.8354C141.305 16.1128 134.959 16.5857 129.878 15.7619L107.771 15.2279L73.7796 25.2057L46.9737 44.0934C46.9737 44.0934 38.0791 70.3501 37.3773 70.9756" fill="#FFCCAD"/>
<path d="M95.2914 36.816L115.079 31.4304C117.734 30.7286 130.961 32.0407 134.135 32.239C138.361 32.4984 144.586 33.1087 147.027 28.73C148.659 25.8007 147.789 22.0629 145.364 19.8354C141.305 16.1128 134.959 16.5857 129.878 15.7619L107.771 15.2279L73.7796 25.2057L46.9737 44.0934C46.9737 44.0934 38.0791 70.3501 37.3773 70.9756" stroke="black" stroke-width="1.03301" stroke-linecap="round" stroke-linejoin="round"/>
<path d="M144.478 52.0118C142.693 68.55 127.33 81.8537 110.258 81.6706C93.1854 81.4876 80.7208 67.8787 82.5211 51.3405C84.3061 34.8023 99.6542 21.4985 116.742 21.6816C133.829 21.8647 146.278 35.4736 144.493 52.0118" fill="black"/>
<path d="M144.478 52.0118C142.693 68.55 127.33 81.8537 110.258 81.6706C93.1854 81.4876 80.7208 67.8787 82.5211 51.3405C84.3061 34.8023 99.6542 21.4985 116.742 21.6816C133.829 21.8647 146.278 35.4736 144.493 52.0118H144.478Z" stroke="black" stroke-width="1.03301" stroke-linecap="round" stroke-linejoin="round"/>
<path d="M132.456 29.5845L132.425 25.0075V23.9548L132.395 19.8813C132.364 16.7689 130.823 14.0227 128.55 13.0615C128.077 12.8632 94.6652 12.909 94.6652 12.909L97.9911 17.7148L97.4419 29.3098L99.4557 29.3556L99.3337 29.1878L132.273 29.6455H132.395L132.471 29.5997L132.456 29.5845Z" fill="#EBECEF"/>
<path d="M132.456 29.5845L132.425 25.0075V23.9548L132.395 19.8813C132.364 16.7689 130.823 14.0227 128.55 13.0615C128.077 12.8632 94.6652 12.909 94.6652 12.909L97.9911 17.7148L97.4419 29.3098L99.4557 29.3556L99.3337 29.1878L132.273 29.6455H132.395L132.471 29.5997L132.456 29.5845Z" stroke="black" stroke-width="1.03301" stroke-linecap="round" stroke-linejoin="round"/>
<path d="M117.032 15.7468H113.065V24.8397H117.032V15.7468Z" fill="white"/>
<path d="M117.032 15.7468H113.065V24.8397H117.032V15.7468Z" stroke="black" stroke-width="1.03301" stroke-linecap="round" stroke-linejoin="round"/>
<path d="M99.426 25.7551L99.3497 18.2793C99.3192 15.884 97.7783 13.7634 95.5051 13.0311C94.0404 12.5428 92.5148 13.7939 92.5148 16.83V19.6829L96.7866 18.2793" fill="#EBECEF"/>
<path d="M99.426 25.7551L99.3497 18.2793C99.3192 15.884 97.7783 13.7634 95.5051 13.0311C94.0404 12.5428 92.5148 13.7939 92.5148 16.83V19.6829L96.7866 18.2793" stroke="black" stroke-width="1.03301" stroke-linecap="round" stroke-linejoin="round"/>
<path d="M65.8303 43.4527C67.6611 40.4777 69.4919 37.5026 71.3227 34.5429C72.4059 32.7883 73.4739 31.0491 74.5571 29.2946C76.3269 26.4263 79.1341 24.3819 81.27 21.7578C85.1605 16.952 88.2423 9.76611 84.9316 3.87705C82.7041 -0.0744121 78.417 -0.410058 74.9843 2.18357C70.1174 5.8299 66.3033 10.8036 61.7263 14.8008L41.023 31.461C39.2838 32.8646 38.048 34.8022 37.4377 37.0602L28.0854 58.5873L15.5598 61.425C15.5598 61.425 29.9162 99.3987 38.109 104.723L62.2145 96.6678" fill="#FFCCAD"/>
<path d="M65.8303 43.4527C67.6611 40.4777 69.4919 37.5026 71.3227 34.5429C72.4059 32.7883 73.4739 31.0491 74.5571 29.2946C76.3269 26.4263 79.1341 24.3819 81.27 21.7578C85.1605 16.952 88.2423 9.76611 84.9316 3.87705C82.7041 -0.0744121 78.417 -0.410058 74.9843 2.18357C70.1174 5.8299 66.3033 10.8036 61.7263 14.8008L41.023 31.461C39.2838 32.8646 38.048 34.8022 37.4377 37.0602L28.0854 58.5873L15.5598 61.425C15.5598 61.425 29.9162 99.3987 38.109 104.723L62.2145 96.6678" stroke="black" stroke-width="1.03301" stroke-linecap="round" stroke-linejoin="round"/>
<path d="M99.3953 76.3308L118.664 71.6165" stroke="black" stroke-width="1.03301" stroke-linecap="round" stroke-linejoin="round"/>
<path d="M0.516602 50.898C2.54573 49.6622 4.95628 48.6095 7.47362 48.4111C10.2656 48.1975 13.0728 49.0366 15.8342 48.4569C18.611 47.8619 20.5485 46.0158 22.6997 44.5359C25.0035 42.9493 27.4903 41.5456 29.8398 39.9895C32.0368 38.5401 35.2559 39.1351 36.629 41.2405C45.8135 55.2766 52.2365 70.106 53.2435 86.0492C53.5944 91.6026 53.335 97.4459 49.9938 102.236C46.5153 107.225 40.2296 110.292 34.2185 113.13L0.516602 50.898Z" fill="#00BB53"/>
<path d="M0.516602 50.898C2.54573 49.6622 4.95628 48.6095 7.47362 48.4111C10.2656 48.1975 13.0728 49.0366 15.8342 48.4569C18.611 47.8619 20.5485 46.0158 22.6997 44.5359C25.0035 42.9493 27.4903 41.5456 29.8398 39.9895C32.0368 38.5401 35.2559 39.1351 36.629 41.2405C45.8135 55.2766 52.2365 70.106 53.2435 86.0492C53.5944 91.6026 53.335 97.4459 49.9938 102.236C46.5153 107.225 40.2296 110.292 34.2185 113.13L0.516602 50.898Z" stroke="black" stroke-width="1.03301" stroke-linecap="round" stroke-linejoin="round"/>
<path d="M22.7315 67.6192C20.9922 61.1962 18.2918 54.941 14.7217 49.0824" stroke="black" stroke-width="1.03301" stroke-linecap="round" stroke-linejoin="round"/>
<path d="M148.247 53.6137C148.049 71.7081 133.235 86.2019 115.141 86.0188C97.0462 85.8205 82.5524 71.0063 82.7355 52.9119C82.9338 34.8176 97.748 20.3238 115.842 20.5069C133.937 20.7052 148.43 35.5194 148.247 53.6137Z" fill="white"/>
<path d="M148.247 53.6137C148.049 71.7081 133.235 86.2019 115.141 86.0188C97.0462 85.8205 82.5524 71.0063 82.7355 52.9119C82.9338 34.8176 97.748 20.3238 115.842 20.5069C133.937 20.7052 148.43 35.5194 148.247 53.6137Z" stroke="black" stroke-width="1.03301" stroke-linecap="round" stroke-linejoin="round"/>
<path d="M147.941 49.4062L147.862 56.6679L153.034 56.7239L153.112 49.4622L147.941 49.4062Z" fill="#F56900"/>
<path d="M147.941 49.4062L147.862 56.6679L153.034 56.7239L153.112 49.4622L147.941 49.4062Z" stroke="black" stroke-width="1.03301" stroke-linecap="round" stroke-linejoin="round"/>
<path d="M131.496 144.07L98.5573 143.719L98.6946 80.2669C98.6946 80.2669 100.556 84.3251 115.126 86.0186C127.652 87.468 131.618 80.9992 131.618 80.9992L131.481 144.085L131.496 144.07Z" fill="#EBECEF"/>
<path d="M131.496 144.07L98.5573 143.719L98.6946 80.2669C98.6946 80.2669 100.556 84.3251 115.126 86.0186C127.652 87.468 131.618 80.9992 131.618 80.9992L131.481 144.085L131.496 144.07Z" stroke="black" stroke-width="1.03301" stroke-linecap="round" stroke-linejoin="round"/>
<path d="M134.119 27.0824C133.615 26.4874 132.639 24.6261 132.547 19.1337C132.547 18.4167 134.363 17.8217 133.63 17.8217L133.417 18.5997C132.684 18.5997 133.493 19.9118 133.493 20.6441L132.928 25.3279C128.092 22.536 119.411 19.7593 113.431 19.6982C107.435 19.6372 101.805 21.1476 96.9076 23.8328L96.9686 18.7828C96.9686 18.0505 96.3889 17.4402 95.6566 17.4402C94.9395 17.4402 94.3445 18.0047 94.314 18.7218C94.1004 24.6566 92.9104 26.3349 92.4679 26.762C92.4069 26.8078 92.3459 26.8536 92.2849 26.8993C84.5803 32.9715 79.5914 42.3543 79.4846 52.9271C79.3778 63.4695 84.1226 72.9133 91.6441 79.1533C92.0255 79.4737 92.3459 79.8703 92.5442 80.328C93.0172 81.4113 93.5359 83.4862 93.5817 87.3918C93.5817 88.1089 94.1767 88.7039 94.8937 88.7039C95.6261 88.7039 97.289 88.7039 97.289 88.7039L96.2821 82.3877C101.118 85.1796 106.718 86.8121 112.698 86.8731C118.679 86.9342 124.308 85.439 129.206 82.7386L132.822 82.6623C132.822 83.3946 132.333 86.7053 133.066 86.7206L133.249 87.636C133.981 87.636 132.974 85.8662 133.005 85.1339C133.081 82.8454 132.12 83.2878 132.395 82.0978C132.623 81.0909 133.188 80.1755 133.996 79.5347C141.61 73.4626 146.537 64.1255 146.644 53.629C146.766 42.9035 141.838 33.3071 134.088 27.0672M115.475 84.249C99.4402 84.0812 83.7869 68.9924 83.9547 52.9577C84.1226 36.9229 100.676 21.4985 116.711 21.6663C132.745 21.8342 146.812 37.5942 146.644 53.629C146.476 69.6637 131.51 84.4168 115.475 84.249Z" fill="#F56900"/>
<path d="M134.119 27.0824C133.615 26.4874 132.639 24.6261 132.547 19.1337C132.547 18.4167 134.363 17.8217 133.63 17.8217L133.417 18.5997C132.684 18.5997 133.493 19.9118 133.493 20.6441L132.928 25.3279C128.092 22.536 119.411 19.7593 113.431 19.6982C107.435 19.6372 101.805 21.1476 96.9076 23.8328L96.9686 18.7828C96.9686 18.0505 96.3889 17.4402 95.6566 17.4402C94.9395 17.4402 94.3445 18.0047 94.314 18.7218C94.1004 24.6566 92.9104 26.3349 92.4679 26.762C92.4069 26.8078 92.3459 26.8536 92.2849 26.8993C84.5803 32.9715 79.5914 42.3543 79.4846 52.9271C79.3778 63.4695 84.1226 72.9133 91.6441 79.1533C92.0255 79.4737 92.3459 79.8703 92.5442 80.328C93.0172 81.4113 93.5359 83.4862 93.5817 87.3918C93.5817 88.1089 94.1767 88.7039 94.8937 88.7039C95.6261 88.7039 97.289 88.7039 97.289 88.7039L96.2821 82.3877C101.118 85.1796 106.718 86.8121 112.698 86.8731C118.679 86.9342 124.308 85.439 129.206 82.7386L132.822 82.6623C132.822 83.3946 132.333 86.7053 133.066 86.7206L133.249 87.636C133.981 87.636 132.974 85.8662 133.005 85.1339C133.081 82.8454 132.12 83.2878 132.395 82.0978C132.623 81.0909 133.188 80.1755 133.996 79.5347C141.61 73.4626 146.537 64.1255 146.644 53.629C146.766 42.9035 141.838 33.3071 134.088 27.0672L134.119 27.0824ZM115.505 84.2642C99.4707 84.0964 83.8174 69.0076 83.9853 52.9729C84.1531 36.9382 100.707 21.5138 116.741 21.6816C132.776 21.8494 146.843 37.6095 146.675 53.6442C146.507 69.6789 131.54 84.4321 115.505 84.2642Z" stroke="black" stroke-width="1.03301" stroke-linecap="round" stroke-linejoin="round"/>
<path d="M117.429 86.7357H113.462V103.472H117.429V86.7357Z" fill="white"/>
<path d="M117.429 86.7357H113.462V103.472H117.429V86.7357Z" stroke="black" stroke-width="1.03301" stroke-linecap="round" stroke-linejoin="round"/>
<path d="M136.514 27.0824C136.011 26.4874 135.035 24.6261 134.943 19.1337C134.943 18.4167 134.348 17.8217 133.631 17.8217C132.899 17.8217 132.288 18.4014 132.288 19.1337L132.227 24.1684C127.391 21.3765 121.807 19.7592 115.826 19.683C109.831 19.6219 104.201 21.1323 99.2883 23.8175L99.3493 18.7676C99.3493 18.0353 98.7696 17.425 98.0372 17.425C97.3202 17.425 96.7252 17.9895 96.6947 18.7218C96.4811 24.6566 95.2911 26.3349 94.8486 26.762C94.7876 26.8078 94.7266 26.8536 94.6655 26.8993C86.9609 32.9715 81.9873 42.3543 81.8652 52.9271C81.7584 63.4542 86.5032 72.9133 94.0248 79.1533C94.4062 79.4737 94.7266 79.8703 94.9249 80.328C95.3979 81.4113 95.9166 83.4862 95.9623 87.3918C95.9623 88.1089 96.5574 88.7039 97.2744 88.7039C98.0067 88.7039 98.617 88.1242 98.617 87.3918L98.678 82.3877C103.514 85.1796 109.114 86.8121 115.094 86.8731C121.075 86.9341 126.704 85.439 131.602 82.7386L131.556 87.1935C131.556 87.9258 132.136 88.5361 132.868 88.5361C133.585 88.5361 134.18 87.9716 134.211 87.2393C134.287 84.9508 134.516 83.3031 134.79 82.1131C135.019 81.0909 135.584 80.1907 136.392 79.5499C144.005 73.4778 148.933 64.1408 149.04 53.6442C149.147 42.9188 144.234 33.3224 136.484 27.0824M115.125 82.3572C99.09 82.1893 86.1829 68.9924 86.3507 52.9577C86.5185 36.9229 99.7155 24.0158 115.75 24.1837C131.785 24.3515 144.692 37.5485 144.524 53.5832C144.356 69.6179 131.159 82.525 115.125 82.3572Z" fill="#F56900"/>
<path d="M136.514 27.0824C136.011 26.4874 135.035 24.6261 134.943 19.1337C134.943 18.4167 134.348 17.8217 133.631 17.8217C132.899 17.8217 132.288 18.4014 132.288 19.1337L132.227 24.1684C127.391 21.3765 121.807 19.7592 115.826 19.683C109.831 19.6219 104.201 21.1323 99.2883 23.8175L99.3493 18.7676C99.3493 18.0353 98.7696 17.425 98.0372 17.425C97.3202 17.425 96.7252 17.9895 96.6947 18.7218C96.4811 24.6566 95.2911 26.3349 94.8486 26.762C94.7876 26.8078 94.7266 26.8536 94.6655 26.8993C86.9609 32.9715 81.9873 42.3543 81.8652 52.9271C81.7584 63.4542 86.5032 72.9133 94.0248 79.1533C94.4062 79.4737 94.7266 79.8703 94.9249 80.328C95.3979 81.4113 95.9166 83.4862 95.9623 87.3918C95.9623 88.1089 96.5574 88.7039 97.2744 88.7039C98.0067 88.7039 98.617 88.1242 98.617 87.3918L98.678 82.3877C103.514 85.1796 109.114 86.8121 115.094 86.8731C121.075 86.9341 126.704 85.439 131.602 82.7386L131.556 87.1935C131.556 87.9258 132.136 88.5361 132.868 88.5361C133.585 88.5361 134.18 87.9716 134.211 87.2393C134.287 84.9508 134.516 83.3031 134.79 82.1131C135.019 81.0909 135.584 80.1907 136.392 79.5499C144.005 73.4778 148.933 64.1408 149.04 53.6442C149.147 42.9188 144.234 33.3224 136.484 27.0824H136.514ZM115.155 82.3572C99.1205 82.1893 86.2134 68.9924 86.3812 52.9577C86.549 36.9229 99.746 24.0158 115.781 24.1837C131.815 24.3515 144.722 37.5485 144.555 53.5832C144.387 69.6179 131.19 82.525 115.155 82.3572Z" stroke="black" stroke-width="1.03301" stroke-linecap="round" stroke-linejoin="round"/>
<path d="M136.515 65.5595L114.591 55.4597L114.621 52.4541L137.674 63.0269L136.515 65.5595Z" fill="#EBECEF"/>
<path d="M136.515 65.5595L114.591 55.4597L114.621 52.4541L137.674 63.0269L136.515 65.5595Z" stroke="black" stroke-width="1.03301" stroke-linecap="round" stroke-linejoin="round"/>
<path d="M116.177 50.6233L116.635 27.4943L113.629 27.4637L113.171 50.5928C111.768 51.1725 110.761 52.5456 110.746 54.1476C110.715 56.2988 112.439 58.0533 114.59 58.0838C116.741 58.1143 118.496 56.3903 118.526 54.2391C118.542 52.6219 117.581 51.2336 116.177 50.6233Z" fill="#EBECEF"/>
<path d="M116.177 50.6233L116.635 27.4943L113.629 27.4637L113.171 50.5928C111.768 51.1725 110.761 52.5456 110.746 54.1476C110.715 56.2988 112.439 58.0533 114.59 58.0838C116.741 58.1143 118.496 56.3903 118.526 54.2391C118.542 52.6219 117.581 51.2336 116.177 50.6233Z" stroke="black" stroke-width="1.03301" stroke-linecap="round" stroke-linejoin="round"/>
<path d="M116.574 54.0866C116.574 55.1546 115.689 56.0089 114.621 55.9937C113.553 55.9937 112.699 55.1088 112.699 54.0408C112.699 52.9729 113.584 52.1185 114.652 52.1185C115.72 52.1185 116.574 53.0034 116.559 54.0713" fill="black"/>
<path d="M116.574 54.0866C116.574 55.1546 115.689 56.0089 114.621 55.9937C113.553 55.9937 112.699 55.1088 112.699 54.0408C112.699 52.9729 113.584 52.1185 114.652 52.1185C115.72 52.1185 116.574 53.0034 116.559 54.0713L116.574 54.0866Z" stroke="black" stroke-width="1.03301" stroke-linecap="round" stroke-linejoin="round"/>
<path d="M117.429 117.478H113.462V136.625H117.429V117.478Z" fill="white"/>
<path d="M117.429 117.478H113.462V136.625H117.429V117.478Z" stroke="black" stroke-width="1.03301" stroke-linecap="round" stroke-linejoin="round"/>
<path d="M81.8958 133.101H77.9291L82.7807 113.954H86.7474L81.8958 133.101Z" fill="white"/>
<path d="M81.8958 133.101H77.9291L82.7807 113.954H86.7474L81.8958 133.101Z" stroke="black" stroke-width="1.03301" stroke-linecap="round" stroke-linejoin="round"/>
<path d="M60.811 137.83C60.811 137.83 44.4712 175.697 72.9248 182.547C101.378 189.397 141.061 184.302 141.061 184.302V176.75L93.506 172.463C90.0732 172.158 87.6017 169.03 88.1051 165.612C89.1731 158.289 91.0344 146.557 92.6516 141.4L95.0469 133.116" fill="#EBECEF"/>
<path d="M60.811 137.83C60.811 137.83 44.4712 175.697 72.9248 182.547C101.378 189.397 141.061 184.302 141.061 184.302V176.75L93.506 172.463C90.0732 172.158 87.6017 169.03 88.1051 165.612C89.1731 158.289 91.0344 146.557 92.6516 141.4L95.0469 133.116" stroke="black" stroke-width="1.03301" stroke-linecap="round" stroke-linejoin="round"/>
<path d="M73.0627 151.592C72.8797 151.943 70.225 168.664 76.2666 173.775L80.1113 170.815C80.1113 170.815 74.1765 166.33 76.587 150.585L73.0627 151.592Z" fill="white"/>
<path d="M73.0627 151.592C72.8797 151.943 70.225 168.664 76.2666 173.775L80.1113 170.815C80.1113 170.815 74.1765 166.33 76.587 150.585L73.0627 151.592Z" stroke="black" stroke-width="1.03301" stroke-linecap="round" stroke-linejoin="round"/>
<path d="M118.756 181.51C118.756 181.51 100.418 194.005 91.63 191.839C91.63 191.839 77.8685 187.643 75.1834 175.957C73.1542 167.108 90.7451 153.209 102.569 152.126L111.662 169.045C111.662 169.045 91.9809 179.694 89.5246 185.049C89.5246 185.049 90.2874 181.296 106.398 172.051C119.077 164.773 118.756 181.525 118.756 181.525" fill="#EBECEF"/>
<path d="M118.756 181.51C118.756 181.51 100.418 194.005 91.63 191.839C91.63 191.839 77.8685 187.643 75.1834 175.957C73.1542 167.108 90.7451 153.209 102.569 152.126L111.662 169.045C111.662 169.045 91.9809 179.694 89.5246 185.049C89.5246 185.049 90.2874 181.296 106.398 172.051C119.077 164.773 118.756 181.525 118.756 181.525V181.51Z" stroke="black" stroke-width="1.03301" stroke-linecap="round" stroke-linejoin="round"/>
<path d="M98.7395 191.396C93.3386 193.212 86.3816 192.22 89.5245 185.049Z" fill="#EBECEF"/>
<path d="M98.7395 191.396C93.3386 193.212 86.3816 192.22 89.5245 185.049" stroke="black" stroke-width="1.03301" stroke-linecap="round" stroke-linejoin="round"/>
<path d="M96.6953 165.704C96.6953 165.704 84.8714 170.189 85.2071 179.725L81.4845 177.986C81.1488 168.45 93.5372 163.278 93.5372 163.278L96.6953 165.704Z" fill="white"/>
<path d="M96.6953 165.704C96.6953 165.704 84.8714 170.189 85.2071 179.725L81.4845 177.986C81.1488 168.45 93.5372 163.278 93.5372 163.278L96.6953 165.704Z" stroke="black" stroke-width="1.03301" stroke-linecap="round" stroke-linejoin="round"/>
<path d="M165.426 160.547C165.426 160.547 165.899 152.492 121.471 169.259C121.471 169.259 144.829 180.991 147.102 180.991C149.376 180.991 168.065 178.199 168.065 178.199L170.689 170.434L165.426 160.547Z" fill="#EBECEF"/>
<path d="M165.426 160.547C165.426 160.547 165.899 152.492 121.471 169.259C121.471 169.259 144.829 180.991 147.102 180.991C149.376 180.991 168.065 178.199 168.065 178.199L170.689 170.434L165.426 160.547Z" stroke="black" stroke-width="1.03301" stroke-linecap="round" stroke-linejoin="round"/>
<path d="M98.556 140.393C98.556 140.393 96.7862 164.453 116.177 178.596C126.369 186.026 140.771 191.717 153.236 191.518C161.642 191.381 170.552 186.941 175.648 179.481C178.241 175.697 173.512 171.151 170.674 167.062C168.111 163.385 165.411 160.547 165.411 160.547C165.411 160.547 166.417 164.834 157.584 167.871C150.688 170.235 131.434 164.392 131.48 141.385" fill="#EBECEF"/>
<path d="M98.556 140.393C98.556 140.393 96.7862 164.453 116.177 178.596C126.369 186.026 140.771 191.717 153.236 191.518C161.642 191.381 170.552 186.941 175.648 179.481C178.241 175.697 173.512 171.151 170.674 167.062C168.111 163.385 165.411 160.547 165.411 160.547C165.411 160.547 166.417 164.834 157.584 167.871C150.688 170.235 131.434 164.392 131.48 141.385" stroke="black" stroke-width="1.03301" stroke-linecap="round" stroke-linejoin="round"/>
<path d="M115.491 152.492C115.491 152.492 116.742 167.962 126.766 171.883L129.604 170.144C129.604 170.144 120.541 162.622 119.611 152.492H115.507H115.491Z" fill="white"/>
<path d="M115.491 152.492C115.491 152.492 116.742 167.962 126.766 171.883L129.604 170.144C129.604 170.144 120.541 162.622 119.611 152.492H115.507H115.491Z" stroke="black" stroke-width="1.03301" stroke-linecap="round" stroke-linejoin="round"/>
<path d="M148.98 179.725C148.98 179.725 161.582 180.869 165.442 172.158L168.035 175.362C164.16 184.073 150.75 183.295 150.75 183.295L148.98 179.725Z" fill="white"/>
<path d="M148.98 179.725C148.98 179.725 161.582 180.869 165.442 172.158L168.035 175.362C164.16 184.073 150.75 183.295 150.75 183.295L148.98 179.725Z" stroke="black" stroke-width="1.03301" stroke-linecap="round" stroke-linejoin="round"/>
<path d="M189.241 170.906L183.322 172.112V167.87L189.241 166.665V170.906Z" fill="white"/>
<path d="M189.241 170.906L183.322 172.112V167.87L189.241 166.665V170.906Z" stroke="black" stroke-width="1.03301" stroke-linecap="round" stroke-linejoin="round"/>
<path d="M53.885 121.033C54.0071 121.704 52.4357 122.589 50.3455 122.985C48.2706 123.382 46.4703 123.153 46.3483 122.482C46.2262 121.811 47.7976 120.926 49.8878 120.529C51.9627 120.132 53.763 120.361 53.885 121.033Z" fill="#F56900"/>
<path d="M53.885 121.033C54.0071 121.704 52.4357 122.589 50.3455 122.985C48.2706 123.382 46.4703 123.153 46.3483 122.482C46.2262 121.811 47.7976 120.926 49.8878 120.529C51.9627 120.132 53.763 120.361 53.885 121.033Z" stroke="black" stroke-width="1.03301" stroke-linecap="round" stroke-linejoin="round"/>
</svg>
