<svg width="135" height="76" viewBox="0 0 135 76" fill="none" xmlns="http://www.w3.org/2000/svg">
<mask id="mask0_48_5519" style="mask-type:luminance" maskUnits="userSpaceOnUse" x="80" y="32" width="38" height="28">
<path fill-rule="evenodd" clip-rule="evenodd" d="M80.6399 32.0928H117.6V59.2898H80.6399V32.0928Z" fill="white"/>
</mask>
<g mask="url(#mask0_48_5519)">
<path fill-rule="evenodd" clip-rule="evenodd" d="M80.6399 59.2991H116.67V34.6802L89.7058 34.6499L80.6399 38.7051V59.2991Z" fill="#CFB69B"/>
</g>
<path fill-rule="evenodd" clip-rule="evenodd" d="M107.837 34.6499V41.0532L98.5388 43.4831L98.5389 34.6626L107.837 34.6499Z" fill="#947157"/>
<path fill-rule="evenodd" clip-rule="evenodd" d="M93.1924 57.2974H113.597V46.7371H93.1924V57.2974Z" fill="white"/>
<path fill-rule="evenodd" clip-rule="evenodd" d="M110.161 55.219H111.289V48.8291H110.161V55.219Z" fill="#7C7E95"/>
<path fill-rule="evenodd" clip-rule="evenodd" d="M96.9116 55.219H98.791V48.8291H96.9116V55.219Z" fill="#7C7E95"/>
<path fill-rule="evenodd" clip-rule="evenodd" d="M101.096 55.219H103.351V48.8291H101.096V55.219Z" fill="#7C7E95"/>
<path fill-rule="evenodd" clip-rule="evenodd" d="M107.837 55.219H108.965V48.8291H107.837V55.219Z" fill="#7C7E95"/>
<path fill-rule="evenodd" clip-rule="evenodd" d="M99.9335 55.219H100.309V48.8291H99.9335V55.219Z" fill="#7C7E95"/>
<path fill-rule="evenodd" clip-rule="evenodd" d="M105.977 55.219H106.729V48.8291H105.977V55.219Z" fill="#7C7E95"/>
<path fill-rule="evenodd" clip-rule="evenodd" d="M104.583 55.219H105.334V48.8291H104.583V55.219Z" fill="#7C7E95"/>
<path fill-rule="evenodd" clip-rule="evenodd" d="M95.5168 55.219H96.2686V48.8291H95.5168V55.219Z" fill="#7C7E95"/>
<path fill-rule="evenodd" clip-rule="evenodd" d="M80.6399 59.2992H89.7683V34.6499L80.6399 37.1434V59.2992Z" fill="#947157"/>
<path fill-rule="evenodd" clip-rule="evenodd" d="M13.3044 59.4284H85.4915V0.0398587L25.1624 0L13.3044 5.343V59.4284Z" fill="#CFB69B"/>
<path fill-rule="evenodd" clip-rule="evenodd" d="M75.503 49.8694C75.6918 49.8877 75.7735 49.9733 75.7712 50.1781C75.761 51.0132 75.7678 51.8488 75.7657 52.6845C75.7654 52.7626 75.7693 52.8555 75.7307 52.9153C75.6845 52.9869 75.5962 53.0713 75.5233 53.0741C75.4497 53.077 75.362 52.9973 75.3003 52.9342C75.2625 52.8958 75.2622 52.8206 75.246 52.7644H74.7898C74.8715 52.9652 74.9112 53.1441 75.0084 53.2828C75.1651 53.5063 75.4795 53.5766 75.7417 53.4888C75.9924 53.4047 76.1809 53.153 76.1827 52.8673C76.1879 51.9682 76.1919 51.0691 76.1817 50.17C76.1791 49.9579 76.2736 49.8874 76.4564 49.8689C76.8029 49.8334 77.139 49.8422 77.414 50.0916C77.8629 49.7631 78.323 49.7978 78.7923 50.0099C78.8192 49.7171 78.6129 49.3066 78.3032 49.0215C77.858 48.6117 77.3344 48.3652 76.741 48.26C76.5705 48.2299 76.3428 48.2521 76.2464 48.1506C76.1524 48.0524 76.194 47.8254 76.1744 47.6552C76.1728 47.6413 76.159 47.6291 76.1503 47.616C76.0289 47.6157 75.9075 47.6157 75.7672 47.6157C75.7672 47.7155 75.7678 47.7944 75.7672 47.873C75.7646 48.191 75.7628 48.1775 75.4403 48.2195C74.7287 48.3119 74.0886 48.571 73.5794 49.0935C73.3321 49.3471 73.1626 49.6461 73.1297 50.0269C73.6254 49.7905 74.0902 49.7655 74.542 50.0932C74.8185 49.8344 75.1567 49.836 75.503 49.8694ZM79.9629 54.5717C79.9684 54.4832 79.9763 54.4168 79.9763 54.3505C79.9768 51.7796 79.9739 49.2086 79.9817 46.6377C79.9823 46.4183 79.8898 46.3956 79.7117 46.3959C77.2014 46.3995 74.691 46.4003 72.1804 46.3948C71.9788 46.3943 71.9083 46.4452 71.9088 46.6596C71.9164 49.2154 71.9135 51.7715 71.9143 54.3273C71.9143 54.4066 71.9234 54.486 71.9286 54.5717H79.9629ZM80.4204 55.0369H80.1005C77.2734 55.0369 74.4465 55.0369 71.6192 55.0367C71.2998 55.0367 71.2987 55.0359 71.2987 54.7066C71.2982 51.8398 71.2982 48.973 71.2987 46.1059C71.2987 45.7904 71.3 45.7897 71.6131 45.7897C74.4478 45.7894 77.2831 45.7923 80.118 45.7844C80.3567 45.7839 80.4269 45.8416 80.4262 46.0889C80.417 48.9717 80.4204 51.8544 80.4204 54.7374V55.0369Z" fill="#8F4E25"/>
<path fill-rule="evenodd" clip-rule="evenodd" d="M73.1297 38.1536C73.154 38.6378 73.2731 39.0676 73.5133 39.5087C73.6489 39.2932 73.7604 39.1162 73.8724 38.9381C73.7747 38.8809 73.7089 38.8422 73.6267 38.7939C73.7408 38.5821 73.8481 38.3821 73.9708 38.1536H73.1297ZM76.7978 42.9631C76.5988 42.9629 76.3993 42.9556 76.2011 42.9644C76.0343 42.9723 75.9797 42.9049 75.9823 42.7409C75.9899 42.2398 75.9888 41.7384 75.9825 41.237C75.9807 41.0934 76.0246 41.0244 76.1727 40.9941C77.4643 40.7296 78.2558 39.2458 78.2513 38.1767C78.2372 38.1699 78.2237 38.1573 78.2093 38.1573C76.9681 38.1547 75.7269 38.1516 74.4857 38.1553C74.4274 38.1553 74.3486 38.2004 74.3146 38.2493C74.2308 38.3702 74.1671 38.5052 74.0903 38.6441C74.1901 38.6969 74.265 38.7363 74.3629 38.788C74.1794 39.0794 74.0138 39.3685 73.8206 39.6383C73.6996 39.8075 73.7208 39.9271 73.8461 40.0773C74.2227 40.529 74.664 40.8761 75.2537 40.9965C75.3845 41.0234 75.4399 41.085 75.4386 41.2229C75.4326 41.7321 75.4328 42.2413 75.4383 42.7506C75.4399 42.9028 75.3845 42.9673 75.2297 42.9639C74.9672 42.9584 74.7045 42.9673 74.4418 42.9639C74.2718 42.9616 74.2799 43.0757 74.2781 43.1906C74.276 43.3068 74.2969 43.3888 74.4452 43.3883C75.3276 43.3846 76.2103 43.3865 77.1039 43.3865C77.1859 42.9749 77.177 42.9639 76.7978 42.9631ZM71.9089 44.798H79.968C79.9732 44.6998 79.9824 44.6107 79.9824 44.5222C79.9832 41.9886 79.9834 39.4548 79.9826 36.9212C79.9826 36.6287 79.9805 36.6276 79.676 36.6276C77.1876 36.6274 74.6992 36.6274 72.211 36.6276C71.9097 36.6276 71.9089 36.6289 71.9089 36.924C71.9086 39.4576 71.9089 41.9912 71.9089 44.5248V44.798ZM71.3033 45.2532V44.9824C71.3033 42.0923 71.3059 39.2022 71.2983 36.3124C71.2978 36.0842 71.3602 36.0166 71.59 36.0171C74.4401 36.0241 77.2908 36.0241 80.1409 36.0174C80.3694 36.0168 80.4433 36.0842 80.4427 36.3143C80.4367 39.2043 80.4373 42.0941 80.4417 44.9839C80.442 45.191 80.3916 45.2748 80.1607 45.2741C77.2947 45.2662 74.4287 45.2691 71.5626 45.2683C71.4851 45.2683 71.4075 45.2597 71.3033 45.2532Z" fill="#8F4E25"/>
<path fill-rule="evenodd" clip-rule="evenodd" d="M58.6923 0V8.32595L49.627 10.7441L49.6271 0.0126049L58.6923 0Z" fill="#947157"/>
<path fill-rule="evenodd" clip-rule="evenodd" d="M44.7432 54.5758H63.4984V44.8691H44.7432V54.5758Z" fill="white"/>
<path fill-rule="evenodd" clip-rule="evenodd" d="M60.3099 52.8792H61.3464V47.0059H60.3099V52.8792Z" fill="#7C7E95"/>
<path fill-rule="evenodd" clip-rule="evenodd" d="M48.1007 52.8792H49.8282V47.0059H48.1007V52.8792Z" fill="#7C7E95"/>
<path fill-rule="evenodd" clip-rule="evenodd" d="M52.0687 52.8792H54.1417V47.0059H52.0687V52.8792Z" fill="#7C7E95"/>
<path fill-rule="evenodd" clip-rule="evenodd" d="M58.1733 52.8792H59.2098V47.0059H58.1733V52.8792Z" fill="#7C7E95"/>
<path fill-rule="evenodd" clip-rule="evenodd" d="M51.1531 52.8792H51.4986V47.0059H51.1531V52.8792Z" fill="#7C7E95"/>
<path fill-rule="evenodd" clip-rule="evenodd" d="M56.6472 52.8792H57.3382V47.0059H56.6472V52.8792Z" fill="#7C7E95"/>
<path fill-rule="evenodd" clip-rule="evenodd" d="M55.1211 52.8792H55.8121V47.0059H55.1211V52.8792Z" fill="#7C7E95"/>
<path fill-rule="evenodd" clip-rule="evenodd" d="M46.8798 52.8792H47.5707V47.0059H46.8798V52.8792Z" fill="#7C7E95"/>
<path fill-rule="evenodd" clip-rule="evenodd" d="M13.3044 59.4284H25.3916V0L13.3044 5.2084V59.4284Z" fill="#947157"/>
<path d="M46.8869 59.28H0V64.6818H46.8869V59.28Z" fill="#CD8857"/>
<path d="M44.1859 64.6819H36.8207V75.9742H44.1859V64.6819Z" fill="#CD8857"/>
<path d="M55.724 64.6819H44.1859V75.9742H55.724V64.6819Z" fill="#A86231"/>
<path d="M55.724 64.6819H44.1859V67.7501H55.724V64.6819Z" fill="#8F4E25"/>
<path d="M81.8683 64.6819H74.5031V75.9742H81.8683V64.6819Z" fill="#CD8857"/>
<path d="M93.4037 64.6819H81.8656V75.9742H93.4037V64.6819Z" fill="#A86231"/>
<path d="M93.4037 64.6819H81.8656V67.7501H93.4037V64.6819Z" fill="#8F4E25"/>
<path d="M119.302 64.6819H111.937V75.9742H119.302V64.6819Z" fill="#CD8857"/>
<path d="M130.84 64.6819H119.302V75.9742H130.84V64.6819Z" fill="#A86231"/>
<path d="M130.84 64.6819H119.302V67.7501H130.84V64.6819Z" fill="#8F4E25"/>
<path d="M9.45302 64.6819H2.08777V75.9742H9.45302V64.6819Z" fill="#CD8857"/>
<path d="M21.1099 64.6819H9.45032V75.9742H21.1099V64.6819Z" fill="#A86231"/>
<path d="M134.4 59.28H46.8868V64.6818H134.4V59.28Z" fill="#A86231"/>
</svg>
