<svg width="41" height="37" viewBox="0 0 41 37" fill="none" xmlns="http://www.w3.org/2000/svg">
<path fill-rule="evenodd" clip-rule="evenodd" d="M32.2243 17.7017C32.3792 17.7017 33.7106 18.4497 34.0854 18.8485C34.32 19.0976 34.3111 19.4299 34.3015 19.7881C34.2996 19.8602 34.2977 19.9333 34.2977 20.007L34.3023 29.5824C34.3023 30.0356 34.016 30.4432 33.5785 30.6098L18.6524 36.3266C18.0569 36.5529 17.7149 36.5072 17.4279 36.3694L0.632866 28.2624C0.245054 28.0752 0 27.692 0 27.2734L0 11.0595C0 10.6092 0.282461 10.2046 0.714551 10.035L15.9117 4.08086C16.198 3.97031 16.5164 3.97252 16.7973 4.09118L18.1704 4.66521C18.9178 4.97767 18.9531 6.02343 18.2286 6.38571C17.7357 6.63216 17.1599 6.65168 16.6514 6.43918L16.3287 6.30429L4.04848 11.1147L8.83124 13.2048L18.573 9.17656C18.8468 9.06336 19.1539 9.06158 19.429 9.17161C20.3754 9.55016 20.3829 10.8871 19.4409 11.2763L11.7191 14.4666L18.0378 17.2274L22.4854 15.4954C22.5541 15.4688 22.6215 15.4408 22.688 15.4131C23.0314 15.2704 23.35 15.138 23.6794 15.2559C24.2024 15.4424 25.4185 16.3526 25.4765 16.4919C25.5017 16.5523 25.5383 16.6909 25.4795 16.7137L19.0921 19.176V33.7796L32.012 28.8314L32.0074 17.782C32.0074 17.7209 32.1563 17.7017 32.2243 17.7017ZM2.29043 12.7728V26.59L16.8639 33.5952V19.1405L10.4016 16.317V25.6106C10.4016 25.6717 10.2528 25.6909 10.1848 25.6909C10.0299 25.6909 8.69848 24.9436 8.32365 24.5441C8.08914 24.2956 8.098 23.9634 8.10755 23.6052C8.10947 23.5331 8.11142 23.46 8.11142 23.3863V15.3162L2.29043 12.7728Z" fill="#6155F5"/>
<path d="M33.035 12.6715L37.6692 17.3057C37.6935 17.33 37.7178 17.3545 37.7421 17.379C38.0396 17.6791 38.3414 17.9834 38.7302 17.999C39.2895 18.0226 40.726 17.6196 40.8368 17.5088C40.8853 17.4603 40.9771 17.3404 40.9324 17.2957L34.6716 11.0349L33.035 12.6715Z" fill="#6155F5"/>
<path fill-rule="evenodd" clip-rule="evenodd" d="M29.5237 13.041C32.5708 13.041 35.041 10.5708 35.041 7.52366C35.041 4.47651 32.5708 2.00631 29.5237 2.00631C26.4765 2.00631 24.0063 4.47651 24.0063 7.52366C24.0063 10.5708 26.4765 13.041 29.5237 13.041ZM29.5237 15.0473C33.6789 15.0473 37.0473 11.6789 37.0473 7.52366C37.0473 3.36846 33.6789 0 29.5237 0C25.3685 0 22 3.36846 22 7.52366C22 11.6789 25.3685 15.0473 29.5237 15.0473Z" fill="#6155F5"/>
</svg>
