<svg width="32" height="32" viewBox="0 0 32 32" fill="none" xmlns="http://www.w3.org/2000/svg">
<path fill-rule="evenodd" clip-rule="evenodd" d="M14.1362 18.8454L24.2776 8.70301L17.7731 26.8015L14.1362 18.8454ZM26.6337 6.25448C26.6369 6.24469 26.6304 6.23489 26.6337 6.2251C26.7077 5.98677 26.6587 5.71798 26.4704 5.52972C26.2822 5.34036 26.0134 5.29248 25.775 5.36648C25.7652 5.36866 25.7554 5.36322 25.7446 5.36648L3.12531 13.4956C2.85977 13.5914 2.67913 13.8384 2.66715 14.1202C2.65954 14.3183 2.73463 14.5055 2.86957 14.6404C2.92725 14.697 2.99581 14.7449 3.07198 14.7808L5.17448 15.7417L10.2399 18.0337C10.2758 18.05 10.3237 17.975 10.3411 17.938C10.3814 17.852 10.2791 16.9205 10.1409 16.606C10.0364 16.3709 9.77413 16.2936 9.5173 16.175L5.19842 14.2258L23.296 7.72142L12.814 18.2044C12.8107 18.2087 12.8096 18.2131 12.8053 18.2164C12.7672 18.2566 12.7422 18.3056 12.715 18.3535C12.6965 18.385 12.6714 18.4122 12.6595 18.4438C12.642 18.4873 12.641 18.5341 12.6333 18.5798C12.6257 18.6212 12.6116 18.6625 12.6127 18.705C12.6127 18.742 12.6268 18.779 12.6344 18.8171C12.6431 18.8682 12.6486 18.9205 12.6693 18.9694C12.6714 18.9738 12.6714 18.9792 12.6736 18.9836L17.2192 28.9279C17.3378 29.1836 17.5979 29.3447 17.8787 29.3327C18.1616 29.3207 18.4076 29.139 18.5044 28.8735L26.6337 6.25448Z" fill="#3440B6"/>
</svg>
