<svg width="32" height="32" viewBox="0 0 32 32" fill="none" xmlns="http://www.w3.org/2000/svg">
<path fill-rule="evenodd" clip-rule="evenodd" d="M18.388 19.7326C15.4786 19.7326 13.1133 17.366 13.1133 14.4566C13.1133 11.5473 15.4786 9.18198 18.388 9.18198C21.2973 9.18198 23.664 11.5473 23.664 14.4566C23.664 17.366 21.2973 19.7326 18.388 19.7326ZM28.3533 23.7953L28.4853 23.7846C28.4613 23.486 28.256 23.25 28.0826 23.0766L23.7706 18.762C24.7466 17.5446 25.2813 16.022 25.2813 14.4566C25.2813 10.6553 22.1893 7.56465 18.388 7.56465C17.1546 7.56465 16.0133 7.91665 15.0106 8.48598L12.0786 5.55531C11.7813 5.25931 11.2746 5.25931 10.9773 5.55531L3.08796 13.4766C2.90929 13.658 2.70396 13.8646 2.67196 14.146C2.64529 14.3846 2.75463 15.178 2.91863 15.3446C3.01063 15.4273 3.09996 15.4566 3.17863 15.4566C3.25996 15.4566 3.32929 15.4233 3.37863 15.3766L5.15996 13.602C6.01463 12.7566 6.30263 12.4713 6.40796 12.3286L11.528 7.20731L13.7306 9.40865C12.3653 10.6686 11.496 12.4566 11.496 14.4566C11.496 18.258 14.5866 21.35 18.388 21.35C18.6053 21.35 18.8186 21.3153 19.0333 21.2953V23.7286H4.22263L4.21863 17.8953C4.21863 17.7166 4.06663 17.5886 3.85596 17.5886C3.63863 17.5886 2.99863 18.0726 2.84929 18.2606C2.68929 18.4633 2.67196 18.722 2.67063 18.978L2.66663 24.5073C2.66663 24.9366 3.01596 25.286 3.44396 25.286H19.812C20.2426 25.286 20.5906 24.9366 20.5906 24.5073V20.982C21.3493 20.7246 22.064 20.3446 22.6933 19.8393L27.9586 25.102C27.988 25.134 28.0293 25.1526 28.0786 25.1526C28.128 25.1526 28.184 25.1313 28.24 25.078C28.3546 24.9646 28.5093 24.0766 28.4853 23.786L28.3533 23.7966V23.7953Z" fill="#3440B6"/>
</svg>
