<svg width="32" height="32" viewBox="0 0 32 32" fill="none" xmlns="http://www.w3.org/2000/svg">
<path fill-rule="evenodd" clip-rule="evenodd" d="M16.6667 9.44102C14.9653 9.44102 13.5809 10.8549 13.5809 12.5924C13.5809 14.3289 14.9653 15.7427 16.6667 15.7427C18.3681 15.7427 19.7525 14.3289 19.7525 12.5924C19.7525 10.8549 18.3681 9.44102 16.6667 9.44102ZM16.6667 17.139C14.2115 17.139 12.2136 15.0998 12.2136 12.5924C12.2136 10.0839 14.2115 8.0435 16.6667 8.0435C19.1218 8.0435 21.1197 10.0839 21.1197 12.5924C21.1197 15.0998 19.1218 17.139 16.6667 17.139ZM16.6667 5.39752C12.6424 5.39752 9.36842 8.7411 9.36842 12.851C9.36842 17.8832 14.9653 24.0754 16.6575 25.8328C18.343 24.023 23.9649 17.6259 23.9649 12.851C23.9649 8.7411 20.691 5.39752 16.6667 5.39752ZM16.6667 27.5238C16.4979 27.5238 16.3291 27.4621 16.1968 27.334C15.8627 27.0114 8 19.353 8 12.851C8 7.97013 11.8886 4 16.6667 4C21.4447 4 25.3333 7.97013 25.3333 12.851C25.3333 19.0245 17.4809 26.9881 17.1468 27.3235C17.0145 27.4574 16.84 27.5238 16.6667 27.5238Z" fill="#3440B6"/>
</svg>
