<svg width="40" height="40" viewBox="0 0 40 40" fill="none" xmlns="http://www.w3.org/2000/svg">
<path d="M13.6315 17.9072C12.0792 17.9072 10.8306 18.7681 10.8306 20.7067C10.8306 22.602 12.0792 23.5063 13.6315 23.5063C15.1784 23.5063 16.4297 22.602 16.4297 20.7067C16.4297 18.7681 15.1784 17.9072 13.6315 17.9072ZM13.6315 22.175C12.9374 22.175 12.4182 21.6476 12.4182 20.7067C12.4182 19.6832 12.9374 19.2358 13.6315 19.2358C14.3216 19.2358 14.8422 19.6832 14.8422 20.7067C14.8422 21.6476 14.3216 22.175 13.6315 22.175ZM23.7193 17.956C23.7193 17.9845 23.7423 18.0075 23.7708 18.0075H24.9489C25.0425 18.0075 25.1184 18.0848 25.1184 18.1756V19.1951C25.1184 19.2249 25.0953 19.248 25.0669 19.248H23.7708C23.7423 19.248 23.7193 19.271 23.7193 19.2995V21.2788C23.7193 22.038 24.0067 22.2631 24.4866 22.2631C24.7117 22.2631 25.0655 22.1248 25.117 22.1248C25.1455 22.1248 25.1699 22.1478 25.1699 22.1763V23.1524C25.1699 23.2256 25.1279 23.2771 25.0818 23.3015C24.8676 23.4168 24.5083 23.4954 23.9769 23.4954C23.0482 23.4954 22.186 23.0277 22.186 21.5351V18.0929C22.186 17.7879 22.3053 17.4978 22.4937 17.2917C22.7445 17.0151 23.5512 16.4973 23.6556 16.4973C23.7003 16.4973 23.7193 16.5108 23.7193 16.5529V17.956ZM4.9889 18.1811C4.9889 18.0848 5.06617 18.0089 5.16243 18.0089H7.20412C9.2092 18.0089 10.2477 19.2127 10.2477 20.7704C10.2477 22.3295 9.08583 23.4086 7.17158 23.4086H6.57507C6.5466 23.4086 6.5222 23.4317 6.5222 23.4615V25.9872C6.5222 26.0292 6.50458 26.0428 6.45848 26.0428C6.35409 26.0428 5.54745 25.5249 5.29665 25.2483C5.1082 25.0409 4.9889 24.7508 4.9889 24.4471V18.1811ZM8.73335 20.6918C8.73335 20.0289 8.30495 19.408 7.17294 19.408H6.57236C6.54389 19.408 6.52084 19.431 6.52084 19.4608V21.9526C6.52084 21.9811 6.54389 22.0055 6.57236 22.0055H7.20276C8.55169 22.0055 8.73335 21.0687 8.73335 20.6918ZM21.397 21.7438C21.397 22.8813 20.5795 23.5063 18.9852 23.5063C18.0728 23.5063 17.1089 23.1863 17.1007 23.1836C17.0289 23.1565 16.9814 23.0914 16.9814 23.0168V21.9567C16.9814 21.9214 17.0113 21.8943 17.0479 21.8943C17.0533 21.8943 17.0682 21.897 17.0696 21.8984C17.4099 22.0082 18.5134 22.2821 19.1004 22.2821C19.4475 22.2821 19.6291 22.2305 19.7457 22.1139C19.8257 22.034 19.8623 21.9486 19.8623 21.8455C19.8623 21.4985 19.4271 21.4022 19.0055 21.31C18.9526 21.2992 18.9757 21.3046 18.8333 21.2707C17.9101 21.0524 16.9367 20.8274 16.9367 19.6384C16.9367 19.1111 17.1577 18.6732 17.5712 18.3695C17.9833 18.0658 18.5785 17.9072 19.2916 17.9072C19.9328 17.9072 20.6934 18.1187 20.9482 18.2C21.0282 18.2258 21.0743 18.2963 21.0743 18.3681V19.4256C21.0716 19.4744 21.0201 19.4974 20.9848 19.4839C20.2541 19.21 19.5858 19.1138 19.1058 19.1138C18.7249 19.1138 18.4781 19.2792 18.4781 19.5354C18.4781 19.8309 18.8388 19.9109 19.2956 20.014C19.3512 20.0262 19.6007 20.0831 19.6657 20.0967C20.0399 20.1794 20.4263 20.2634 20.7435 20.4708C21.1828 20.7582 21.397 21.1744 21.397 21.7438ZM29.6627 23.3897C29.6451 23.3897 29.6302 23.3748 29.6302 23.3571V20.14C29.6302 19.4256 29.3875 19.1206 28.8181 19.1206C28.6147 19.1206 28.3694 19.1965 28.1253 19.3348C27.8827 19.4757 27.6929 19.5923 27.6251 19.633C27.6061 19.6452 27.5858 19.6777 27.5858 19.7035V23.3585C27.5858 23.3761 27.5708 23.391 27.5532 23.391H26.1189C26.1013 23.391 26.085 23.3761 26.085 23.3585V18.1824C26.085 18.0984 26.1541 18.0292 26.2395 18.0292H27.5546C27.5722 18.0292 27.5885 18.0441 27.5885 18.0617V18.4685C27.5885 18.4929 27.6088 18.5132 27.6332 18.5132C27.6427 18.5132 27.6549 18.5078 27.659 18.5051L27.7023 18.4725C27.8623 18.3492 28.1091 18.2095 28.2745 18.1458C28.6337 18.0089 29.0214 17.9289 29.336 17.9289C30.5087 17.9289 31.1282 18.6027 31.1282 19.8757V23.3558C31.1282 23.3748 31.1133 23.3883 31.0943 23.3883H29.6627V23.3897ZM32.3117 23.3897C32.2941 23.3897 32.2792 23.3748 32.2792 23.3571V15.4303C32.2792 15.4019 32.2846 15.3937 32.3239 15.3937C32.4134 15.3937 33.2133 15.8967 33.4722 16.1814C33.6647 16.3929 33.7745 16.6803 33.7745 16.9704V23.3571C33.7745 23.3748 33.7596 23.3897 33.742 23.3897H32.3117ZM13.6302 9.61165C13.603 9.61165 13.5773 9.61979 13.5461 9.63877C13.3048 9.82043 13.0919 10.0306 12.9076 10.2665C12.8533 10.3275 12.8533 10.398 12.9103 10.4712C13.0852 10.6976 13.2858 10.8996 13.5054 11.0717C13.5461 11.1043 13.5868 11.1192 13.6288 11.1192C13.6708 11.1192 13.7115 11.1029 13.7522 11.0704C13.9718 10.8982 14.1724 10.6962 14.3473 10.4712C14.4043 10.398 14.4043 10.3275 14.3473 10.2624C14.167 10.0292 13.9542 9.81908 13.7183 9.64148C13.6844 9.61979 13.6586 9.61165 13.6302 9.61165ZM13.6302 11.5544C13.5149 11.5544 13.3929 11.5571 13.2668 11.5625C13.2221 11.5625 13.1814 11.5788 13.1502 11.6113C13.1055 11.6561 13.0879 11.7279 13.0879 11.7754C13.0919 12.0234 13.1082 13.3331 13.1191 14.1668C13.1245 14.5695 13.1272 14.8609 13.1285 14.8704C13.1285 14.9301 13.1719 15.0548 13.3061 15.0548H13.9555C14.0518 15.0548 14.1182 14.987 14.1318 14.8786C14.1318 14.8758 14.1318 14.8731 14.1318 14.8704C14.1318 14.8501 14.1453 13.7371 14.1711 11.816V11.7781C14.1724 11.7415 14.1602 11.6628 14.1101 11.6127C14.0789 11.5801 14.0382 11.5652 13.9908 11.5652C13.8688 11.5584 13.7467 11.5544 13.6302 11.5544ZM15.2773 11.732C15.1282 11.732 15.0062 11.8147 14.9425 11.957C14.7554 12.3732 14.6198 12.7528 14.4883 13.2246C14.4734 13.2802 14.4788 13.3263 14.5046 13.3602C14.5222 13.3832 14.5575 13.4103 14.6279 13.4103H15.135C15.2502 13.4103 15.2922 13.3493 15.3085 13.2992C15.3912 13.0172 15.4509 12.8531 15.5566 12.62C15.558 12.6172 15.5661 12.6023 15.5973 12.6023C15.6095 12.6023 15.6217 12.6037 15.6339 12.6078L15.8915 12.6932C15.9213 12.704 15.9403 12.7298 15.9498 12.7501C15.9687 12.7894 15.9714 12.8423 15.9579 12.8816C15.9552 12.8897 15.4373 14.3376 15.2828 14.8203C15.2597 14.8948 15.2624 14.9531 15.2936 14.9965C15.3221 15.0358 15.3709 15.0562 15.4387 15.0562H16.0663C16.1694 15.0562 16.2372 15.0155 16.267 14.9328C16.29 14.8704 16.3226 14.7796 16.3605 14.6725L16.3755 14.6318C16.5639 14.1058 16.8499 13.3087 16.911 13.0823C17.014 12.6986 17.0425 12.2783 16.4798 12.0695C16.3009 12.0031 16.1314 11.9462 15.9755 11.8987C15.7776 11.8377 15.5864 11.793 15.4183 11.7537L15.398 11.7482C15.3519 11.736 15.3139 11.732 15.2773 11.732ZM11.983 11.732C11.9464 11.732 11.9084 11.736 11.8718 11.7455L11.846 11.751C11.6779 11.7903 11.4881 11.835 11.2902 11.896C11.1357 11.9435 10.9662 12.0004 10.7859 12.0668C10.2219 12.2756 10.2517 12.6959 10.3548 13.0795C10.4131 13.2978 10.6788 14.0448 10.9038 14.6698C10.9431 14.7769 10.9743 14.8677 10.9974 14.9301C11.0272 15.0128 11.095 15.0534 11.198 15.0534H11.8257C11.9098 15.0534 11.9504 15.0209 11.9708 14.9938C12.002 14.9518 12.0047 14.8935 11.9816 14.8189C11.8284 14.3431 11.3105 12.8938 11.3051 12.8803C11.2916 12.8409 11.2943 12.7894 11.3133 12.7487C11.3227 12.7284 11.3404 12.7027 11.3729 12.6918L11.6318 12.6064C11.6413 12.6037 11.6535 12.6023 11.6657 12.6023C11.6915 12.6023 11.7037 12.6132 11.7064 12.62C11.8135 12.8586 11.8745 13.024 11.9545 13.2992C11.9694 13.3507 12.0114 13.4103 12.1267 13.4103H12.6351C12.6906 13.4103 12.7327 13.3941 12.7584 13.3602C12.7842 13.3263 12.7896 13.2815 12.7733 13.226C12.6405 12.7515 12.5049 12.3719 12.3192 11.957C12.288 11.8892 12.1945 11.732 11.983 11.732ZM15.9389 15.5361H11.3282C11.1668 15.5361 11.0299 15.6716 11.0299 15.833V16.4132C11.0299 16.5949 11.1072 16.683 11.2685 16.683H15.9999C16.1599 16.683 16.2372 16.5949 16.2372 16.4132V15.833C16.2372 15.6716 16.1002 15.5361 15.9389 15.5361ZM38.1426 20.0221C38.1372 16.7847 32.0555 11.1775 25.5753 7.60521C18.0999 3.48252 9.59287 1.0531 6.79063 2.59724C3.59659 4.35966 1.84638 13.1568 1.84502 20.0221C1.84638 26.943 3.49492 35.6276 6.79063 37.4456C9.77724 39.0914 17.9142 36.662 25.5753 32.439C32.1572 28.8098 38.1372 23.4168 38.1426 20.0221ZM9.03432 0.555555C13.7522 0.555555 21.3102 3.5381 26.3358 6.30916C29.2112 7.89398 32.4744 10.2068 34.9987 12.5603C37.4214 14.8176 39.7071 17.6279 39.7112 20.0221C39.7071 22.2766 37.8769 24.9216 34.931 27.6222C32.4297 29.9133 29.1814 32.1665 26.3372 33.735C21.4824 36.4112 14.083 39.5374 9.20514 39.5374C7.87926 39.5374 6.79198 39.3083 5.97043 38.8555C3.81079 37.6652 2.42662 34.4576 1.60913 31.3151C0.730637 27.9435 0.279188 23.8886 0.277832 20.0235C0.277832 16.241 0.765885 12.1766 1.61591 8.87144C2.65167 4.84636 4.15785 2.19053 5.97043 1.19002C6.73098 0.768401 7.76267 0.555555 9.03432 0.555555Z" fill="#E75204"/>
</svg>
