<svg width="122" height="120" viewBox="0 0 122 120" fill="none" xmlns="http://www.w3.org/2000/svg">
<path fill-rule="evenodd" clip-rule="evenodd" d="M60.48 119.4H121.683V86.3047H60.48V119.4Z" fill="#BF9E7A"/>
<path fill-rule="evenodd" clip-rule="evenodd" d="M93.9724 95.885L85.9199 101.266V86.3047H93.9724V95.885Z" fill="#A86231"/>
<path fill-rule="evenodd" clip-rule="evenodd" d="M48.8379 110.532C47.1617 87.4319 46.1916 61.5653 47.9283 41.7343C49.363 25.3546 52.0064 20.7909 52.0328 20.747L51.9905 20.8119L47.2241 17.6425C46.8987 18.1255 43.9961 22.8451 42.3761 39.4899C40.6995 56.7175 40.9544 80.9967 43.0856 110.532H48.8379Z" fill="#1ADC6C"/>
<path fill-rule="evenodd" clip-rule="evenodd" d="M79.5188 55.3974C79.5308 55.4055 79.5317 55.4189 79.5212 55.4284C78.9567 55.9315 66.0289 67.3637 56.3285 68.3222C50.3511 68.9134 45.0385 64.4671 44.6602 58.4591C44.2858 52.5055 49.1665 47.5175 55.1645 47.2285C65.9281 46.7112 78.9173 55.0093 79.5188 55.3974Z" fill="#00BB53"/>
<path fill-rule="evenodd" clip-rule="evenodd" d="M9.60239 74.1383C9.59615 74.1511 9.60239 74.1635 9.61679 74.1664C10.3737 74.2975 27.672 77.2357 36.6417 72.9438C42.168 70.2994 44.4629 63.7106 41.6299 58.3884C38.8224 53.1147 31.9382 51.433 26.5526 54.3459C16.8883 59.5737 9.92255 73.4907 9.60239 74.1383Z" fill="#00BB53"/>
<path fill-rule="evenodd" clip-rule="evenodd" d="M70.3814 119.617H14.471L0 64.8477H84.8525L70.3814 119.617Z" fill="#6161FF"/>
<path fill-rule="evenodd" clip-rule="evenodd" d="M13.4399 38.6495C13.4399 38.6495 28.3401 33.0211 36.8841 35.3899C41.9179 36.7861 44.8598 41.9715 43.4548 46.9719C42.0499 51.9723 36.8299 54.8948 31.7956 53.4991C22.1606 50.8275 13.4399 38.6495 13.4399 38.6495Z" fill="#00BB53"/>
<path fill-rule="evenodd" clip-rule="evenodd" d="M23.04 19.367C23.04 19.367 35.1183 16.0841 41.618 18.5774C45.4479 20.0464 47.354 24.3216 45.8751 28.1257C44.3962 31.9307 40.0925 33.8237 36.2626 32.3546C28.9325 29.5433 23.04 19.367 23.04 19.367Z" fill="#00BB53"/>
<path fill-rule="evenodd" clip-rule="evenodd" d="M70.3884 11.6388C70.3884 11.6388 63.8542 22.344 57.3684 24.9932C53.5471 26.5538 49.1753 24.7419 47.6042 20.9464C46.0327 17.1504 47.8567 12.8075 51.678 11.2469C58.9918 8.25865 70.3884 11.6388 70.3884 11.6388Z" fill="#00BB53"/>
<path fill-rule="evenodd" clip-rule="evenodd" d="M73.5481 32.7672C73.5673 32.7772 73.5711 32.7968 73.5567 32.813C73.0066 33.4223 63.698 43.6406 56.0218 45.2632C51.398 46.2407 46.8514 43.3426 45.8084 38.777C44.6622 33.7623 48.385 29.0103 53.5119 28.3022C62.0281 27.1269 72.8631 32.4267 73.5481 32.7672Z" fill="#00BB53"/>
<path fill-rule="evenodd" clip-rule="evenodd" d="M37.1646 0C37.1646 0 44.524 4.4888 46.3264 8.91322C47.3886 11.5205 46.1224 14.4892 43.4982 15.5444C40.8736 16.5996 37.8846 15.3417 36.8229 12.7345C34.7896 7.74453 37.1646 0 37.1646 0Z" fill="#00BB53"/>
</svg>
