<svg width="958" height="1259" viewBox="0 0 958 1259" fill="none" xmlns="http://www.w3.org/2000/svg">
<path d="M62.5333 1140.46C-46.3054 1183.62 -158.195 1218.99 -257.644 1235.67" stroke="#00BB53" stroke-width="24"/>
<path d="M364.494 998.478C277.233 1046.31 171.41 1097.28 62.5344 1140.45" stroke="#00BB53" stroke-width="24"/>
<path d="M644.249 813.184C556.296 882.278 462.606 944.671 364.5 998.453" stroke="#6161FF" stroke-width="24"/>
<path d="M879.012 578.246C815.713 669.221 731.035 744.981 644.245 813.162" stroke="#6161FF" stroke-width="24"/>
<path d="M903.078 274.75C929.159 319.492 945.281 364.059 945.341 405.698C945.259 458.967 921.457 517.292 879.013 578.295" stroke="#F56900" stroke-width="24"/>
<path d="M678.684 28.4633C763.989 99.933 846.601 177.845 903.076 274.726" stroke="#F56900" stroke-width="24"/>
<path d="M404.584 -164.397C495.72 -111.208 593.11 -43.2377 678.686 28.4583" stroke="#001A73" stroke-width="24"/>
</svg>
