<svg width="120" height="75" viewBox="0 0 120 75" fill="none" xmlns="http://www.w3.org/2000/svg">
<path fill-rule="evenodd" clip-rule="evenodd" d="M4.27141e-06 74.2925H119.691V14.8139L103.906 6.326L95.9841 0H4.79383C2.14255 0.00320968 -0.00349423 2.15749 4.27141e-06 4.81103V74.2925Z" fill="#22202E"/>
<path fill-rule="evenodd" clip-rule="evenodd" d="M119.883 14.3536L98.0495 0.548188C95.7142 -0.93031 92.6705 0.75565 92.6705 3.52882V15.1129H92.3976L69.3652 0.548188C67.0288 -0.93031 63.9863 0.75565 63.9863 3.52882V14.8421L41.379 0.548188C39.0411 -0.93031 36 0.75565 36 3.52882V74.4337H119.881V14.3536H119.883Z" fill="#9698AA"/>
<path d="M50.9791 25.3984C50.2429 25.3984 49.6495 25.8016 49.6495 26.7089C49.6495 27.6163 50.2429 28.0194 50.9791 28.0194C51.7153 28.0194 52.3075 27.5958 52.3075 26.71C52.3075 25.8243 51.713 25.3996 50.9791 25.3996V25.3984ZM50.9791 27.396C50.6496 27.396 50.403 27.1495 50.403 26.7089C50.403 26.2308 50.6496 26.0207 50.9791 26.0207C51.3086 26.0207 51.554 26.2297 51.554 26.7089C51.554 27.1495 51.3075 27.396 50.9791 27.396ZM55.7686 25.4223C55.7686 25.4359 55.7789 25.4461 55.7927 25.4461H56.3527C56.3976 25.4461 56.4333 25.4825 56.4333 25.5245V26.0014C56.4333 26.0151 56.423 26.0264 56.4091 26.0264H55.7939C55.7801 26.0264 55.7697 26.0378 55.7697 26.0514V26.9769C55.7697 27.3324 55.9057 27.438 56.1338 27.438C56.2409 27.438 56.408 27.3732 56.4333 27.3732C56.4472 27.3732 56.4587 27.3846 56.4587 27.3971V27.8536C56.4587 27.8877 56.4379 27.9115 56.4172 27.9229C56.3158 27.9774 56.1441 28.0137 55.893 28.0137C55.4529 28.0137 55.0427 27.7957 55.0427 27.0962V25.4859C55.0427 25.3428 55.0992 25.2077 55.189 25.1111C55.3077 24.9817 55.6914 24.7398 55.7409 24.7398C55.7628 24.7398 55.7709 24.7455 55.7709 24.7659V25.4211L55.7686 25.4223ZM46.8763 25.5279C46.8763 25.4836 46.9132 25.4473 46.9593 25.4473H47.9282C48.8799 25.4473 49.373 26.0105 49.373 26.7396C49.373 27.4686 48.8211 27.974 47.9121 27.974H47.6287C47.6148 27.974 47.6033 27.9853 47.6033 27.999V29.1811C47.6033 29.2004 47.5953 29.2072 47.5734 29.2072C47.5238 29.2072 47.1402 28.9653 47.0215 28.8359C46.9316 28.7394 46.8752 28.6031 46.8752 28.4611V25.529L46.8763 25.5279ZM48.6541 26.7032C48.6541 26.3932 48.4501 26.1025 47.9132 26.1025H47.6287C47.6148 26.1025 47.6045 26.1139 47.6045 26.1263V27.2926C47.6045 27.3062 47.616 27.3176 47.6287 27.3176H47.9282C48.5677 27.3176 48.6541 26.8793 48.6541 26.7032ZM54.666 27.1949C54.666 27.7275 54.2777 28.0194 53.5207 28.0194C53.0875 28.0194 52.6301 27.8695 52.6267 27.8684C52.5921 27.8559 52.5702 27.8252 52.5702 27.79V27.2937C52.5702 27.2778 52.584 27.2642 52.6013 27.2642C52.6036 27.2642 52.6105 27.2654 52.6117 27.2654C52.773 27.3165 53.2972 27.4448 53.576 27.4448C53.7408 27.4448 53.8272 27.4209 53.8825 27.3664C53.9205 27.3289 53.9378 27.2892 53.9378 27.2404C53.9378 27.078 53.7316 27.0326 53.5311 26.9894C53.5057 26.9837 53.5173 26.9871 53.4493 26.9712C53.0115 26.869 52.5495 26.7634 52.5495 26.207C52.5495 25.9606 52.6543 25.755 52.8502 25.6131C53.046 25.4711 53.3283 25.3962 53.667 25.3962C53.9712 25.3962 54.333 25.495 54.454 25.5324C54.492 25.5449 54.5139 25.5779 54.5139 25.6108V26.1059C54.5127 26.1286 54.4885 26.1388 54.4712 26.1332C54.1244 26.0048 53.8065 25.9606 53.5795 25.9606C53.3986 25.9606 53.2811 26.0378 53.2811 26.1581C53.2811 26.2967 53.4527 26.3342 53.6693 26.3819C53.6958 26.3875 53.8145 26.4137 53.8456 26.4205C54.0231 26.4591 54.2062 26.4988 54.3572 26.5954C54.5646 26.7294 54.666 26.9247 54.666 27.1915V27.1949ZM58.5901 27.9649C58.5809 27.9649 58.574 27.9581 58.574 27.949V26.4432C58.574 26.1082 58.4588 25.9662 58.188 25.9662C58.0913 25.9662 57.9749 26.0014 57.8585 26.0662C57.7433 26.132 57.6535 26.1865 57.6212 26.2058C57.612 26.2115 57.6028 26.2263 57.6028 26.2388V27.949C57.6028 27.9569 57.5958 27.9649 57.5866 27.9649H56.9057C56.8965 27.9649 56.8896 27.9581 56.8896 27.949V25.5268C56.8896 25.487 56.923 25.4552 56.9633 25.4552H57.5878C57.597 25.4552 57.6039 25.462 57.6039 25.4711V25.6608C57.6039 25.6721 57.6131 25.6812 57.6258 25.6812C57.6304 25.6812 57.6362 25.6789 57.6385 25.6778L57.6592 25.663C57.7353 25.6051 57.8516 25.5404 57.9311 25.5097C58.1016 25.445 58.286 25.4087 58.4358 25.4087C58.9922 25.4087 59.286 25.7232 59.286 26.3194V27.9479C59.286 27.9569 59.2791 27.9637 59.2699 27.9637H58.5901V27.9649ZM59.8471 27.9649C59.8391 27.9649 59.8322 27.9581 59.8322 27.949V24.2401C59.8322 24.2265 59.8345 24.2231 59.8529 24.2231C59.8955 24.2231 60.2746 24.4582 60.3979 24.5922C60.4889 24.691 60.5407 24.8261 60.5407 24.9612V27.949C60.5407 27.9569 60.5338 27.9649 60.5257 27.9649H59.8471ZM50.9791 21.5181C50.9664 21.5181 50.9538 21.5215 50.9399 21.5306C50.8259 21.6157 50.7245 21.7145 50.6369 21.8247C50.6116 21.8531 50.6116 21.886 50.6381 21.9201C50.721 22.0257 50.8166 22.12 50.9203 22.2017C50.9399 22.2165 50.9595 22.2244 50.9791 22.2244C50.9987 22.2244 51.0183 22.2165 51.0379 22.2017C51.1427 22.1211 51.2372 22.0268 51.3201 21.9212C51.3466 21.8872 51.3466 21.8542 51.3201 21.8236C51.2349 21.7145 51.1335 21.6157 51.0217 21.5328C51.0044 21.5226 50.9918 21.5181 50.9791 21.5181ZM50.9791 22.4277C50.9238 22.4277 50.8662 22.4288 50.8063 22.4322C50.7855 22.4322 50.766 22.4402 50.751 22.455C50.7291 22.4765 50.7222 22.5095 50.7222 22.5322C50.7245 22.648 50.7314 23.2612 50.7371 23.6507C50.7395 23.8393 50.7418 23.9755 50.7418 23.9801C50.7418 24.0073 50.7625 24.0664 50.8259 24.0664H51.1346C51.1796 24.0664 51.2118 24.0346 51.2187 23.9835C51.2187 23.9823 51.2187 23.9812 51.2187 23.9801C51.2187 23.971 51.2257 23.4497 51.2372 22.5503V22.5322C51.2372 22.5151 51.2326 22.4788 51.2084 22.455C51.1934 22.4402 51.1738 22.4322 51.1519 22.4322C51.0932 22.43 51.0356 22.4277 50.9814 22.4277H50.9791ZM51.7603 22.5106C51.69 22.5106 51.6312 22.5492 51.6013 22.6162C51.5125 22.8115 51.448 22.9887 51.3858 23.209C51.3789 23.2351 51.3812 23.2567 51.3939 23.2726C51.4019 23.2828 51.4192 23.2964 51.4526 23.2964H51.6934C51.7487 23.2964 51.7683 23.268 51.7752 23.2442C51.8144 23.1125 51.8432 23.0352 51.8927 22.9262C51.8927 22.9262 51.8974 22.9183 51.9123 22.9183C51.9181 22.9183 51.9239 22.9183 51.9296 22.9206L52.0517 22.9603C52.0656 22.9648 52.0748 22.9773 52.0794 22.9864C52.0886 23.0046 52.0898 23.0296 52.0829 23.0477C52.0817 23.0511 51.8351 23.7291 51.7626 23.9551C51.751 23.9903 51.7533 24.0175 51.7683 24.0368C51.7821 24.055 51.8052 24.0641 51.8374 24.0641H52.1347C52.1842 24.0641 52.2153 24.0448 52.2303 24.0062C52.2407 23.9767 52.2568 23.9346 52.2753 23.8847L52.2822 23.8654C52.372 23.6189 52.5068 23.2465 52.5356 23.1409C52.584 22.9614 52.5979 22.765 52.3306 22.6673C52.2453 22.6367 52.1647 22.6094 52.0909 22.5878C51.9964 22.5594 51.9066 22.539 51.8271 22.5197L51.8167 22.5174C51.7971 22.5129 51.7787 22.5106 51.7614 22.5106H51.7603ZM50.1968 22.5106C50.1795 22.5106 50.1611 22.5129 50.1438 22.5163L50.1311 22.5197C50.0516 22.5379 49.9618 22.5594 49.8673 22.5878C49.7947 22.6094 49.714 22.6367 49.6276 22.6673C49.3603 22.765 49.3742 22.9614 49.4226 23.1409C49.4502 23.2431 49.5769 23.5928 49.6829 23.8847C49.7014 23.9346 49.7164 23.9767 49.7267 24.0062C49.7405 24.0448 49.7728 24.0641 49.8223 24.0641H50.1196C50.1599 24.0641 50.1784 24.0493 50.1887 24.0357C50.2037 24.0164 50.2049 23.988 50.1945 23.9539C50.1219 23.7314 49.8753 23.0534 49.873 23.0466C49.8661 23.0284 49.8673 23.0035 49.8765 22.9853C49.8811 22.9762 49.8892 22.9637 49.9042 22.958L50.0274 22.9183C50.0274 22.9183 50.0378 22.916 50.0436 22.916C50.0562 22.916 50.062 22.9217 50.0631 22.924C50.1138 23.0352 50.1426 23.1125 50.1807 23.2419C50.1876 23.2658 50.2083 23.2942 50.2625 23.2942H50.5033C50.5298 23.2942 50.5493 23.2862 50.562 23.2703C50.5735 23.2544 50.577 23.234 50.5689 23.2067C50.5056 22.9841 50.441 22.807 50.3535 22.6128C50.3397 22.581 50.2947 22.5072 50.1945 22.5072L50.1968 22.5106ZM52.0748 24.2901H49.8857C49.8085 24.2901 49.744 24.3537 49.744 24.4286V24.7C49.744 24.7852 49.7809 24.8261 49.8569 24.8261H52.1036C52.1796 24.8261 52.2165 24.7852 52.2165 24.7V24.4286C52.2165 24.3537 52.152 24.2901 52.0748 24.2901ZM62.6157 26.3887C62.6134 24.8738 59.7262 22.2505 56.6499 20.5789C53.1013 18.6507 49.0631 17.514 47.7324 18.2362C46.2161 19.0606 45.3855 23.1772 45.3843 26.3887C45.3843 29.6263 46.1678 33.6906 47.7324 34.5411C49.1506 35.3111 53.0126 34.1743 56.6499 32.1984C59.7745 30.5007 62.6134 27.9774 62.6157 26.3887ZM48.7981 17.2812C51.0379 17.2812 54.6256 18.6768 57.0117 19.9725C58.377 20.7141 59.9255 21.7963 61.1237 22.8978C62.2735 23.9539 63.3589 25.269 63.36 26.3887C63.3589 27.4436 62.489 28.6814 61.0903 29.9442C59.9036 31.0162 58.3609 32.0701 57.0106 32.8048C54.7063 34.0574 51.1934 35.52 48.8776 35.52C48.2485 35.52 47.7312 35.4133 47.3418 35.2009C46.3164 34.6433 45.6597 33.1432 45.2714 31.6726C44.8543 30.0953 44.64 28.1977 44.64 26.3887C44.64 24.6194 44.8716 22.7173 45.276 21.1706C45.768 19.2878 46.4823 18.0443 47.3429 17.5764C47.7047 17.38 48.1944 17.28 48.7981 17.28" fill="white"/>
<path fill-rule="evenodd" clip-rule="evenodd" d="M64.32 74.275H71.4191V40.8H64.3215L64.32 74.275ZM53.9892 60.96C52.537 60.96 51.36 62.1418 51.36 63.5993V74.4976H56.6198V63.5993C56.6198 62.1418 55.4416 60.96 53.9892 60.96Z" fill="#515165"/>
<path fill-rule="evenodd" clip-rule="evenodd" d="M71.04 74.275H78.1376V40.8H71.04V74.275Z" fill="#7C7E95"/>
<path fill-rule="evenodd" clip-rule="evenodd" d="M78.2401 74.275H85.3376V40.8H78.2401V74.275Z" fill="#515165"/>
<path fill-rule="evenodd" clip-rule="evenodd" d="M84.96 74.275H92.0576V40.8H84.96V74.275Z" fill="#7C7E95"/>
<path fill-rule="evenodd" clip-rule="evenodd" d="M92.16 74.275H99.2576V40.8H92.16V74.275Z" fill="#515165"/>
<path fill-rule="evenodd" clip-rule="evenodd" d="M99.36 74.275H106.458V40.8H99.36V74.275Z" fill="#7C7E95"/>
<path fill-rule="evenodd" clip-rule="evenodd" d="M106.56 74.275H113.659V40.8H106.561L106.56 74.275Z" fill="#515165"/>
</svg>
