<svg width="221" height="114" viewBox="0 0 221 114" fill="none" xmlns="http://www.w3.org/2000/svg">
<path d="M219.634 113.23H1.36133C5.21993 109.278 10.5085 109.902 16.0325 109.902H204.962C210.486 109.902 215.778 109.275 219.634 113.23Z" fill="#22202E"/>
<path d="M203.583 93.4871C203.583 104.309 194.801 113.015 184.055 113.015C173.309 113.015 164.526 104.233 164.526 93.4871C164.526 82.7409 173.309 73.9587 184.055 73.9587C194.801 73.9587 203.583 82.6625 203.583 93.4871Z" fill="#22202E"/>
<path d="M210.015 93.1647H174.57L116.018 0H127.437C150.335 0 157.316 23.761 187.274 42.9756C198.409 50.1106 217.075 59.0527 219.82 65.3248C220.056 65.8739 220.134 66.3445 220.134 66.8151C220.134 73.7178 220.056 83.049 220.056 83.049C220.134 88.6182 210.018 93.1647 210.018 93.1647" fill="#F56900"/>
<path d="M220.993 82.1079H149.628V93.3217H210.72C216.368 93.3217 220.915 88.8507 220.915 83.2845L220.993 82.1079Z" fill="#22202E"/>
<path d="M79.6749 93.4871C79.6749 104.309 70.8928 113.015 60.1466 113.015C49.4004 113.015 40.5398 104.312 40.5398 93.4871C40.5398 82.6625 49.322 73.9587 60.0681 73.9587C70.8143 73.9587 79.6749 82.6625 79.6749 93.4871Z" fill="#22202E"/>
<path d="M197.142 92.6928H13.1624C7.59321 92.6928 3.04675 88.8492 3.04675 83.2831V10.1928C3.04675 4.62662 7.59623 0.0771484 13.1624 0.0771484H114.485C137.383 0.0771484 144.443 23.8382 174.4 43.1312C186.398 50.8153 207.417 60.6986 207.417 67.0492V83.2831" fill="#F7F7F8"/>
<path d="M187.353 43.0541C172.452 33.4876 163.278 22.8198 154.885 14.5083H121.554C120.299 14.5083 119.358 15.528 119.358 16.7046V38.2693C119.358 42.4266 122.731 45.7965 126.885 45.7965H191.896C190.327 44.9337 188.758 43.9924 187.346 43.0511" fill="#899BFF"/>
<path d="M0.313757 82.1079L0 83.2061C0 88.7752 4.62791 93.3217 10.2725 93.3217H197.389C203.037 93.3217 207.662 88.7722 207.662 83.2061V82.1079H0.313757Z" fill="#22202E"/>
<path d="M62.0325 93.4773C62.0325 104.299 53.2503 113.006 42.5042 113.006C31.758 113.006 22.9758 104.223 22.9758 93.4773C22.9758 82.7312 31.758 73.949 42.5042 73.949C53.2503 73.949 62.0325 82.7312 62.0325 93.4773Z" fill="#515165"/>
<path d="M54.504 93.4787C54.504 100.146 49.0917 105.555 42.4273 105.555C35.763 105.555 30.3507 100.143 30.3507 93.4787C30.3507 86.8144 35.763 81.4021 42.4273 81.4021C49.0947 81.4805 54.504 86.8928 54.504 93.4787Z" fill="white"/>
<path d="M184.92 93.4773C184.92 104.299 176.137 113.006 165.391 113.006C154.645 113.006 145.863 104.223 145.863 93.4773C145.863 82.7312 154.645 73.949 165.391 73.949C176.137 73.949 184.92 82.7312 184.92 93.4773Z" fill="#515165"/>
<path d="M177.391 93.4785C177.391 100.146 171.979 105.555 165.314 105.555C158.65 105.555 153.238 100.143 153.238 93.4785C153.238 86.8142 158.65 81.4019 165.314 81.4019C171.982 81.4803 177.391 86.8926 177.391 93.4785Z" fill="white"/>
<g clip-path="url(#clip0_46_4123)">
<path d="M60.3193 26.2482C60.186 26.0359 60.0256 25.8326 59.837 25.644L47.9716 13.7785C47.2476 13.0546 46.2933 12.6909 45.339 12.6909C44.3846 12.6909 43.4303 13.0546 42.7063 13.7785L30.8409 25.644C30.7178 25.7671 30.615 25.8924 30.5201 26.0189C29.4777 27.4759 30.039 29.5641 31.8517 30.6224L45.3333 38.7936L58.5044 31.0064C59.6394 30.2734 60.3103 29.4455 60.5926 28.6245C60.7733 27.7639 60.7507 26.9722 60.317 26.2493L60.3193 26.2482Z" fill="#EBECEF"/>
<path fill-rule="evenodd" clip-rule="evenodd" d="M30.5948 21.0801L34.1163 19.7067L38.3628 30.4315L39.3059 14.2371L43.3345 14.4426C43.3345 14.4426 42.8658 19.5814 42.667 21.5669C42.9561 19.8999 43.1312 18.81 43.1312 18.81L47.3596 20.023L46.8107 21.9147L48.8335 22.3631C48.8335 22.3631 47.3156 28.7035 46.5521 31.8737C48.9611 25.0217 51.8727 17.2514 51.8727 17.2514L55.0215 18.4305L53.4098 23.0418L55.7861 23.8618C56.4558 22.2151 56.9008 21.1207 56.9008 21.1207L59.8553 22.4794C59.8553 22.4794 55.4382 32.2453 53.2878 37.5478C52.7977 37.3491 52.3098 37.1503 51.8264 36.9526C51.5011 38.0391 51.1793 39.1358 50.8675 40.2652C49.9764 40.0201 49.0876 39.7366 48.1976 39.4904C48.5523 38.2029 48.9894 36.615 49.4513 34.9367C48.7861 36.8329 48.1231 38.7292 47.4534 40.6243C46.5318 40.2979 45.6102 39.9704 44.6886 39.644C44.5632 40.1714 44.4345 40.6977 44.3091 41.2252C43.2678 40.9699 42.2265 40.7147 41.183 40.4978C41.4326 39.4689 41.7115 38.2458 42.0018 36.9278C41.2134 36.7087 40.424 36.4749 39.6041 36.2626C39.6775 36.0119 39.7509 35.7431 39.8243 35.4675C39.202 35.4031 38.5797 35.3331 37.9687 35.2518C37.9766 35.1761 37.9834 35.0937 37.9913 35.0157C37.1871 35.2721 36.479 35.4968 36.479 35.4968L30.5948 21.0801Z" fill="#FDD732"/>
<path fill-rule="evenodd" clip-rule="evenodd" d="M51.8815 17.2605L50.1501 16.6562C50.1501 16.6562 44.8318 31.6659 42.3132 38.7924C42.9073 38.9799 43.4935 39.2115 44.0875 39.3989C46.5191 32.5254 51.8815 17.2605 51.8815 17.2605Z" fill="#FFAD00"/>
<path fill-rule="evenodd" clip-rule="evenodd" d="M52.9193 22.9075L51.4974 22.8171C51.4974 22.8171 48.5903 33.3589 47.0182 39.076C47.462 39.2171 47.907 39.3594 48.3509 39.5006C49.8733 33.9699 51.3969 28.4393 52.9193 22.9075Z" fill="#FFAD00"/>
<path fill-rule="evenodd" clip-rule="evenodd" d="M44.4237 19.1814L43.1316 18.8098C43.1316 18.8098 39.8417 30.158 38.1962 35.8321C38.6784 35.9755 39.1595 36.1201 39.6045 36.2613C41.2004 30.7724 44.4248 19.1803 44.4248 19.1803L44.4237 19.1814Z" fill="#FFAD00"/>
<path fill-rule="evenodd" clip-rule="evenodd" d="M48.9579 22.1417L45.2603 21.3218C45.2603 21.3218 42.7914 34.1766 41.3074 40.2765C42.3509 40.4944 43.3922 40.7486 44.4335 41.0038C45.9289 34.7153 47.4626 28.4302 48.9579 22.1417Z" fill="#FFAD00"/>
<path fill-rule="evenodd" clip-rule="evenodd" d="M46.3514 40.0281L43.0378 41.8058L34.835 26.7249L38.1486 24.9473L46.3514 40.0281Z" fill="#FFAD00"/>
<path fill-rule="evenodd" clip-rule="evenodd" d="M46.9292 39.7176L44.405 41.0717L36.2021 25.9909L38.7264 24.6367L46.9292 39.7176Z" fill="#FDD732"/>
<path d="M58.7357 30.4654L45.3918 37.2282L31.7329 30.0769C31.027 29.6658 30.512 29.0977 30.2003 28.4731C30.3618 29.0954 30.6148 29.7607 30.8972 30.4778L45.3986 63.0406L59.9012 30.4778C60.1282 29.8826 60.3428 29.3145 60.5021 28.7713C60.1316 29.3597 59.5522 29.9368 58.7346 30.4654H58.7357Z" fill="#303DB9"/>
<path d="M45.4912 37.1785L45.3918 37.2294L31.7329 30.0769C31.027 29.6658 30.512 29.0977 30.2003 28.4731C30.3618 29.0954 30.6148 29.7607 30.8983 30.4778L45.3998 63.0406L45.4912 62.8362V37.1774V37.1785Z" fill="#303DB9"/>
</g>
<g clip-path="url(#clip1_46_4123)">
<path d="M67.8865 29.9513C67.6138 29.9513 67.3537 29.7983 67.2288 29.5361C65.5098 25.9296 66.3402 23.1149 67.0727 20.6321C67.772 18.2617 68.3755 16.215 67.055 13.5855C66.874 13.2255 67.0197 12.7885 67.3787 12.6074C67.7387 12.4263 68.1757 12.572 68.3568 12.931C69.9363 16.0745 69.1913 18.601 68.4702 21.0442C67.7481 23.4936 67.0655 25.8068 68.5441 28.9097C68.7168 29.2729 68.5628 29.7078 68.1997 29.8805C68.0987 29.9284 67.9915 29.9513 67.8865 29.9513Z" fill="#BFC0CB"/>
<path d="M68.6497 57.194C78.8468 57.194 87.1132 51.3962 87.1132 44.2443C87.1132 37.0924 78.8468 31.2947 68.6497 31.2947C58.4526 31.2947 50.1862 37.0924 50.1862 44.2443C50.1862 51.3962 58.4526 57.194 68.6497 57.194Z" fill="#EBECEF"/>
<path d="M62.9172 38.1499C62.7736 37.9584 62.502 37.9189 62.3106 38.0625C62.1815 38.1582 62.1222 38.3133 62.1399 38.4621C62.1482 38.5349 62.1763 38.6067 62.2231 38.6691L63.3053 40.1165C63.4489 40.308 63.7205 40.3475 63.912 40.204C64.1034 40.0604 64.143 39.7888 63.9994 39.5973L62.9172 38.1499Z" fill="#BFC0CB"/>
<path d="M69.0449 39.4048C68.8243 39.3122 68.5704 39.4153 68.4778 39.6358L67.842 41.1467L66.3925 41.4058C66.1563 41.4485 66.0003 41.6732 66.0419 41.9084C66.0835 42.1436 66.3093 42.3007 66.5445 42.2591L68.3238 41.9407C68.56 41.898 68.7161 41.6732 68.6745 41.4381C68.6734 41.4308 68.6693 41.4246 68.6672 41.4173L69.2759 39.9709C69.304 39.9043 69.3134 39.8356 69.3082 39.768C69.2957 39.6119 69.1979 39.4683 69.0439 39.4028L69.0449 39.4048Z" fill="#BFC0CB"/>
<path d="M66.7382 40.2798C66.9588 40.3724 67.2127 40.2694 67.3053 40.0488L68.0067 38.3829C68.0347 38.3163 68.0452 38.2476 68.0389 38.18C68.0264 38.0239 67.9297 37.8803 67.7746 37.8148C67.554 37.7221 67.3001 37.8252 67.2065 38.0458L66.5051 39.7117C66.4115 39.9323 66.5155 40.1862 66.7361 40.2788L66.7382 40.2798Z" fill="#BFC0CB"/>
<path d="M68.3902 38.5131C68.5265 38.7097 68.796 38.7597 68.9927 38.6244C69.1248 38.5328 69.1914 38.3819 69.179 38.2321C69.1727 38.1593 69.1488 38.0864 69.104 38.0219L68.0781 36.5329C67.9417 36.3362 67.6722 36.2863 67.4745 36.4215C67.2779 36.5568 67.2279 36.8274 67.3632 37.0251L68.3892 38.5131H68.3902Z" fill="#BFC0CB"/>
<path d="M72.8244 39.8814C72.5872 39.8502 72.3697 40.0177 72.3385 40.255L72.1054 42.0479C72.0731 42.2851 72.2417 42.5026 72.479 42.5338C72.7162 42.565 72.9337 42.3975 72.9649 42.1602L73.199 40.3674C73.2032 40.3362 73.2032 40.306 73.2011 40.2758C73.1844 40.076 73.0315 39.9085 72.8255 39.8814H72.8244Z" fill="white"/>
<path d="M74.7858 39.5411C74.5486 39.5099 74.3311 39.6774 74.2999 39.9147L74.0658 41.7075C74.0356 41.9437 74.2021 42.1622 74.4393 42.1935C74.6766 42.2247 74.8941 42.0571 74.9253 41.8199L75.1594 40.027C75.1636 39.9958 75.1636 39.9656 75.1615 39.9355C75.1459 39.7357 74.9919 39.5682 74.7858 39.5411Z" fill="white"/>
<path d="M71.1095 38.6058C71.0627 38.3706 70.8348 38.2187 70.5996 38.2645C70.3644 38.3113 70.2115 38.5413 70.2583 38.7744L70.61 40.5475C70.6568 40.7826 70.8847 40.9345 71.1199 40.8888C71.3384 40.8451 71.4851 40.6453 71.4674 40.4288C71.4664 40.4122 71.4643 40.3955 71.4601 40.3789L71.1084 38.6058H71.1095Z" fill="white"/>
<path d="M77.3476 34.9648L76.6911 34.4248C76.6942 34.277 76.6234 34.1303 76.4881 34.046L75.8118 33.6256L75.8669 33.2053C75.8711 33.174 75.8711 33.1439 75.869 33.1137C75.8534 32.9139 75.6994 32.7464 75.4934 32.7193C75.2561 32.6881 75.0387 32.8556 75.0074 33.0929L75.0033 33.122L74.9533 33.0908C74.9273 33.0741 74.8992 33.0617 74.8711 33.0513C74.6828 32.9836 74.4664 33.0533 74.3561 33.2302C74.2302 33.4331 74.2915 33.7006 74.4955 33.8275L74.8795 34.0668L74.7723 34.8857C74.7421 35.122 74.9086 35.3405 75.1458 35.3717C75.3831 35.4029 75.6006 35.2354 75.6318 34.9981L75.6692 34.7078L76.817 35.6506C77.0126 35.8129 77.3102 35.7713 77.4538 35.5538C77.5786 35.3644 77.5225 35.1074 77.3466 34.9638L77.3476 34.9648Z" fill="white"/>
<path d="M72.3433 38.8336C72.4869 39.0251 72.7585 39.0646 72.95 38.921C73.1414 38.7774 73.181 38.5059 73.0374 38.3144L71.9552 36.867C71.8345 36.7057 71.6233 36.6537 71.4453 36.7265L71.41 36.6745C71.2737 36.4778 71.0041 36.4279 70.8064 36.5631C70.6098 36.6984 70.5598 36.969 70.6951 37.1656L71.7211 38.6547C71.8522 38.844 72.1071 38.8961 72.3017 38.7774L72.3433 38.8326V38.8336Z" fill="white"/>
<path d="M65.1262 42.672C65.0242 42.672 64.9212 42.6355 64.8379 42.5627L63.4873 41.3619C63.3083 41.2027 63.2927 40.929 63.4509 40.7501C63.6101 40.5711 63.8838 40.5544 64.0627 40.7136L65.4134 41.9144C65.5923 42.0736 65.608 42.3473 65.4498 42.5263C65.3645 42.623 65.2448 42.672 65.1251 42.672H65.1262Z" fill="#BFC0CB"/>
<path d="M82.6198 43.0924C82.6115 43.0258 82.6198 42.9561 82.6448 42.8884L83.2816 41.1965C83.3659 40.9728 83.6156 40.8593 83.8393 40.9436C84.0631 41.0279 84.1775 41.2787 84.0922 41.5014L83.4554 43.1933C83.3711 43.417 83.1214 43.5304 82.8976 43.4462C82.7405 43.3868 82.6386 43.2474 82.6198 43.0913V43.0924Z" fill="white"/>
<path d="M75.3975 42.0967C75.385 41.9947 75.4089 41.8886 75.4714 41.7981L76.5026 40.3132C76.6389 40.1165 76.9094 40.0676 77.1061 40.2039C77.3027 40.3413 77.3516 40.6108 77.2153 40.8074L76.1841 42.2923C76.0478 42.489 75.7773 42.5379 75.5806 42.4016C75.4745 42.3277 75.4121 42.2153 75.3975 42.0967Z" fill="white"/>
<path d="M77.9087 42.1652C77.9056 42.1351 77.9045 42.1049 77.9076 42.0737L78.0721 40.2735C78.0939 40.0352 78.3051 39.8594 78.5434 39.8812C78.7817 39.9031 78.9576 40.1154 78.9357 40.3526L78.7713 42.1528C78.7495 42.391 78.5382 42.5669 78.2999 42.545C78.0929 42.5263 77.9326 42.364 77.9087 42.1652Z" fill="white"/>
<path d="M54.3221 43.0727C54.3356 43.2392 54.2514 43.4067 54.0942 43.4899L52.5001 44.3421C52.2889 44.4556 52.0267 44.3754 51.9132 44.1642C51.7998 43.954 51.8799 43.6908 52.0912 43.5773L53.6853 42.7251C53.8965 42.6117 54.1587 42.6918 54.2722 42.9031C54.3013 42.9572 54.318 43.0144 54.3221 43.0727Z" fill="#BFC0CB"/>
<path d="M56.8739 42.0976C56.8864 42.2474 56.8198 42.3983 56.6876 42.4898C56.491 42.6251 56.2204 42.5762 56.0851 42.3785L55.0592 40.8905C54.9239 40.6928 54.9728 40.4233 55.1705 40.288C55.3672 40.1528 55.6377 40.2017 55.773 40.3994L56.799 41.8874C56.8437 41.9519 56.8676 42.0247 56.8739 42.0976Z" fill="#BFC0CB"/>
<path d="M77.7519 41.6357C77.7602 41.7376 77.7321 41.8427 77.6666 41.9312L76.5792 43.3744C76.4346 43.5659 76.163 43.6034 75.9715 43.4598C75.7801 43.3151 75.7416 43.0446 75.8862 42.8521L76.9736 41.4088C77.1182 41.2174 77.3898 41.1799 77.5813 41.3235C77.6843 41.4016 77.7426 41.516 77.7519 41.6346V41.6357Z" fill="white"/>
<path d="M84.0735 36.3652C84.0787 36.4318 84.0693 36.5015 84.0412 36.5681L83.3399 38.234C83.2473 38.4546 82.9934 38.5587 82.7728 38.465C82.5522 38.3724 82.4481 38.1175 82.5418 37.8979L83.2431 36.232C83.3357 36.0114 83.5896 35.9073 83.8102 36.001C83.9642 36.0655 84.062 36.2101 84.0745 36.3662L84.0735 36.3652Z" fill="white"/>
<path d="M82.006 39.4806C82.0184 39.6305 81.9518 39.7813 81.8197 39.8729C81.623 40.0082 81.3525 39.9593 81.2172 39.7616L80.1912 38.2736C80.056 38.0769 80.1049 37.8064 80.3026 37.6711C80.4992 37.5358 80.7698 37.5847 80.9051 37.7824L81.931 39.2704C81.9758 39.3349 81.9997 39.4078 82.006 39.4806Z" fill="white"/>
<path d="M84.3893 38.9344C84.3976 39.0364 84.3695 39.1415 84.304 39.2299L83.2166 40.6742C83.073 40.8657 82.8004 40.9042 82.61 40.7595C82.4185 40.6149 82.38 40.3443 82.5246 40.1529L83.612 38.7086C83.7556 38.5171 84.0282 38.4786 84.2187 38.6233C84.3217 38.7013 84.3799 38.8158 84.3903 38.9344H84.3893Z" fill="white"/>
<path d="M79.521 35.3112C79.523 35.3414 79.523 35.3716 79.5189 35.4028L79.2847 37.1956C79.2535 37.4329 79.0361 37.6004 78.7988 37.5692C78.5616 37.538 78.394 37.3195 78.4253 37.0833L78.6594 35.2904C78.6906 35.0531 78.9081 34.8856 79.1453 34.9168C79.3513 34.9439 79.5053 35.1114 79.521 35.3112Z" fill="white"/>
<path d="M58.26 40.9978C58.4016 41.0488 58.5119 41.1716 58.5399 41.3298C58.5816 41.5649 58.4255 41.7907 58.1893 41.8324L56.4099 42.1508C56.1737 42.1924 55.949 42.0363 55.9074 41.8001C55.8657 41.5649 56.0218 41.3391 56.258 41.2975L58.0374 40.9791C58.1144 40.9656 58.1914 40.9729 58.26 40.9978Z" fill="#BFC0CB"/>
<path d="M62.5529 42.5826C62.6944 42.6336 62.8047 42.7563 62.8328 42.9145C62.8744 43.1497 62.7183 43.3755 62.4821 43.4171L60.7028 43.7355C60.4676 43.7771 60.2418 43.62 60.2002 43.3848C60.1586 43.1497 60.3147 42.9239 60.5509 42.8822L62.3302 42.5638C62.4072 42.5503 62.4842 42.5576 62.5529 42.5826Z" fill="#BFC0CB"/>
<path d="M53.1723 39.824C53.2004 39.8344 53.2285 39.8469 53.2545 39.8636L54.7893 40.8178C54.9922 40.9447 55.0546 41.2111 54.9287 41.415C54.8018 41.6179 54.5333 41.6804 54.3314 41.5545L52.7966 40.6003C52.5937 40.4733 52.5313 40.207 52.6572 40.003C52.7675 39.8261 52.9839 39.7564 53.1723 39.824Z" fill="#BFC0CB"/>
<path d="M63.9584 38.9407C63.9459 38.8387 63.9698 38.7326 64.0323 38.642L65.0635 37.1572C65.1998 36.9605 65.4703 36.9116 65.667 37.049C65.8636 37.1853 65.9126 37.4558 65.7752 37.6525L64.744 39.1373C64.6077 39.334 64.3372 39.3829 64.1405 39.2456C64.0344 39.1717 63.9719 39.0593 63.9574 38.9407H63.9584Z" fill="#BFC0CB"/>
<path d="M61.5053 34.6641C61.4928 34.5621 61.5167 34.456 61.5792 34.3654L62.6103 32.8806C62.7467 32.6839 63.0172 32.635 63.2139 32.7724C63.4105 32.9087 63.4594 33.1792 63.3221 33.3759L62.2909 34.8607C62.1546 35.0574 61.884 35.1063 61.6874 34.969C61.5812 34.8951 61.5188 34.7827 61.5042 34.6641H61.5053Z" fill="#BFC0CB"/>
<path d="M59.9864 39.8532C59.9916 39.9198 59.9823 39.9895 59.9542 40.0561L59.2528 41.722C59.1602 41.9426 58.9063 42.0467 58.6857 41.953C58.4651 41.8604 58.3611 41.6055 58.4547 41.386L59.1561 39.72C59.2487 39.4994 59.5026 39.3954 59.7232 39.489C59.8772 39.5535 59.975 39.6982 59.9875 39.8543L59.9864 39.8532Z" fill="#BFC0CB"/>
<path d="M61.3789 41.0551C61.3841 41.1217 61.3747 41.1914 61.3466 41.258L60.6453 42.924C60.5527 43.1445 60.2988 43.2486 60.0782 43.155C59.8576 43.0623 59.7535 42.8074 59.8472 42.5879L60.5485 40.9219C60.6411 40.7013 60.895 40.5973 61.1156 40.6909C61.2696 40.7554 61.3674 40.9001 61.3799 41.0562L61.3789 41.0551Z" fill="#BFC0CB"/>
<path d="M62.9186 41.2414C62.931 41.3912 62.8644 41.5421 62.7323 41.6336C62.5356 41.7689 62.2651 41.72 62.1298 41.5223L61.1038 40.0343C60.9686 39.8376 61.0175 39.5671 61.2152 39.4318C61.4118 39.2966 61.6824 39.3455 61.8176 39.5432L62.8436 41.0312C62.8884 41.0957 62.9123 41.1685 62.9186 41.2414Z" fill="#BFC0CB"/>
<path d="M61.1809 37.9407C61.1861 38.0073 61.1767 38.077 61.1486 38.1436L60.4577 39.7845C60.3693 39.9937 60.1393 40.1217 59.9218 40.0561C59.6721 39.9801 59.5483 39.7075 59.6482 39.4734L60.3432 37.822C60.414 37.6545 60.5774 37.5307 60.7595 37.54C61.004 37.5525 61.1653 37.7357 61.1809 37.9407Z" fill="#BFC0CB"/>
<path d="M64.0701 39.2601C64.0836 39.4214 64.0056 39.5847 63.8526 39.6721C63.6528 39.7866 63.3968 39.7096 63.2668 39.5202L62.2689 38.0718C62.1596 37.9136 62.1471 37.6961 62.2658 37.5463C62.4593 37.3018 62.8089 37.3278 62.9702 37.5619L63.9962 39.0499C64.0409 39.1144 64.0649 39.1872 64.0711 39.2601H64.0701Z" fill="#BFC0CB"/>
<path d="M61.3807 34.1175C61.3943 34.2788 61.3162 34.4422 61.1633 34.5296C60.9635 34.644 60.7075 34.567 60.5774 34.3776L59.5795 32.9292C59.4703 32.771 59.4578 32.5536 59.5764 32.4037C59.77 32.1592 60.1196 32.1852 60.2809 32.4193L61.3069 33.9073C61.3516 33.9718 61.3755 34.0447 61.3818 34.1175H61.3807Z" fill="#BFC0CB"/>
<path d="M63.9744 40.1248C63.9879 40.2861 63.9099 40.4495 63.7569 40.5369C63.5571 40.6513 63.3011 40.5743 63.1711 40.385L62.1732 38.9365C62.0639 38.7784 62.0514 38.5609 62.1701 38.411C62.3636 38.1665 62.7132 38.1925 62.8745 38.4267L63.9005 39.9146C63.9452 39.9792 63.9692 40.052 63.9754 40.1248H63.9744Z" fill="#BFC0CB"/>
<path d="M65.539 34.3082C65.5473 34.4102 65.5192 34.5153 65.4537 34.6037L64.3788 36.0314C64.2633 36.1843 64.0614 36.2655 63.8804 36.1989C63.588 36.0917 63.5026 35.7525 63.6733 35.5267L64.7367 34.1157C64.8991 33.8993 65.2268 33.8472 65.4173 34.0397C65.4901 34.1136 65.5317 34.2094 65.54 34.3092L65.539 34.3082Z" fill="#BFC0CB"/>
<path d="M63.033 34.1426C63.0351 34.1728 63.0351 34.203 63.031 34.2342L62.801 35.9959C62.7708 36.2237 62.5804 36.4131 62.3504 36.4038C62.0924 36.3933 61.9051 36.1634 61.9373 35.9147L62.1673 34.1541C62.1975 33.921 62.3962 33.7285 62.6314 33.7451C62.8509 33.7608 63.0164 33.9345 63.033 34.1426Z" fill="#BFC0CB"/>
<path d="M58.9003 37.0738C58.9024 37.104 58.9024 37.1341 58.8983 37.1654L58.6683 38.927C58.6381 39.1549 58.4477 39.3443 58.2177 39.3349C57.9597 39.3245 57.7724 39.0945 57.8046 38.8458L58.0346 37.0852C58.0648 36.8522 58.2635 36.6596 58.4987 36.6763C58.7182 36.6919 58.8837 36.8657 58.9003 37.0738Z" fill="#BFC0CB"/>
<path d="M53.9512 41.7823C53.9533 41.8125 53.9533 41.8426 53.9492 41.8739L53.7192 43.6355C53.689 43.8634 53.4986 44.0528 53.2686 44.0434C53.0106 44.033 52.8233 43.803 52.8555 43.5543L53.0855 41.7937C53.1157 41.5606 53.3144 41.3681 53.5496 41.3848C53.7691 41.4004 53.9346 41.5742 53.9512 41.7823Z" fill="#BFC0CB"/>
<path d="M71.5615 33.5121C71.7207 33.4601 71.9028 33.5048 72.0204 33.638L73.2159 34.9939C73.3741 35.1739 73.3575 35.4475 73.1774 35.6057C72.9985 35.7639 72.7238 35.7472 72.5656 35.5672L71.37 34.2114C71.2118 34.0313 71.2285 33.7577 71.4085 33.5995C71.4543 33.5589 71.5063 33.5298 71.5615 33.5121Z" fill="white"/>
<path d="M66.3682 31.7348C66.5274 31.6827 66.7095 31.7275 66.8271 31.8607L68.0227 33.2165C68.1809 33.3965 68.1642 33.6702 67.9842 33.8284C67.8052 33.9865 67.5305 33.9699 67.3724 33.7899L66.1768 32.434C66.0186 32.254 66.0353 31.9803 66.2153 31.8222C66.2611 31.7816 66.3131 31.7525 66.3682 31.7348Z" fill="#BFC0CB"/>
<path d="M65.7864 39.2558C65.8499 39.2787 65.9092 39.3162 65.9571 39.3693L67.1839 40.697C67.3462 40.8729 67.3358 41.1476 67.16 41.3099C66.9851 41.4722 66.7094 41.4618 66.5471 41.286L65.3203 39.9582C65.1579 39.7824 65.1683 39.5077 65.3442 39.3453C65.467 39.2319 65.6387 39.2028 65.7854 39.2558H65.7864Z" fill="#BFC0CB"/>
<path d="M55.9411 38.1987C56.0046 38.2216 56.0639 38.2591 56.1117 38.3121L57.3385 39.6399C57.5009 39.8157 57.4905 40.0904 57.3146 40.2528C57.1388 40.4151 56.8641 40.4047 56.7017 40.2288L55.4749 38.9011C55.3126 38.7252 55.323 38.4505 55.4989 38.2882C55.6216 38.1748 55.7933 38.1457 55.94 38.1987H55.9411Z" fill="#BFC0CB"/>
<path d="M53.5856 37.5266C53.6491 37.5495 53.7084 37.587 53.7563 37.64L54.9831 38.9678C55.1454 39.1436 55.135 39.4183 54.9591 39.5806C54.7833 39.743 54.5086 39.7326 54.3463 39.5567L53.1195 38.229C52.9571 38.0531 52.9675 37.7784 53.1434 37.6161C53.2662 37.5027 53.4379 37.4735 53.5846 37.5266H53.5856Z" fill="#BFC0CB"/>
<path d="M58.7796 36.6951C58.9211 36.7461 59.0314 36.8689 59.0595 37.027C59.1011 37.2622 58.945 37.488 58.7088 37.5296L56.9295 37.848C56.6943 37.8897 56.4685 37.7325 56.4269 37.4974C56.3853 37.2622 56.5413 37.0364 56.7775 36.9948L58.5569 36.6764C58.6339 36.6629 58.7109 36.6701 58.7796 36.6951Z" fill="#BFC0CB"/>
<path d="M61.7112 36.9356C61.8527 36.9866 61.963 37.1094 61.9911 37.2675C62.0327 37.5027 61.8767 37.7285 61.6405 37.7701L59.8611 38.0885C59.6259 38.1301 59.4001 37.973 59.3585 37.7379C59.3169 37.5027 59.473 37.2769 59.7092 37.2353L61.4885 36.9169C61.5655 36.9033 61.6425 36.9106 61.7112 36.9356Z" fill="#BFC0CB"/>
<path d="M63.344 39.4339C63.4855 39.4849 63.5958 39.6077 63.6239 39.7658C63.6656 40.001 63.5095 40.2268 63.2733 40.2684L61.4939 40.5868C61.2588 40.6284 61.033 40.4713 60.9913 40.2361C60.9497 40.001 61.1058 39.7752 61.342 39.7336L63.1213 39.4152C63.1983 39.4016 63.2753 39.4089 63.344 39.4339Z" fill="#BFC0CB"/>
<path d="M68.1443 35.0498C68.2858 35.1008 68.3961 35.2236 68.4242 35.3818C68.4658 35.6169 68.3098 35.8427 68.0736 35.8844L66.2942 36.2028C66.059 36.2444 65.8333 36.0883 65.7916 35.8521C65.75 35.617 65.9061 35.3912 66.1423 35.3495L67.9216 35.0311C67.9986 35.0176 68.0756 35.0249 68.1443 35.0498Z" fill="#BFC0CB"/>
<path d="M68.9629 36.6836C69.1044 36.7346 69.2147 36.8574 69.2428 37.0156C69.2844 37.2507 69.1284 37.4765 68.8922 37.5182L67.1128 37.8366C66.8777 37.8782 66.6519 37.7221 66.6102 37.4859C66.5686 37.2507 66.7247 37.0249 66.9609 36.9833L68.7402 36.6649C68.8172 36.6514 68.8942 36.6587 68.9629 36.6836Z" fill="#BFC0CB"/>
<path d="M65.0684 36.0105C65.2099 36.0615 65.3202 36.1843 65.3483 36.3425C65.3899 36.5776 65.2338 36.8034 64.9976 36.8451L63.2183 37.1635C62.9831 37.2051 62.7573 37.049 62.7157 36.8128C62.6741 36.5776 62.8302 36.3518 63.0664 36.3102L64.8457 35.9918C64.9227 35.9783 64.9997 35.9856 65.0684 36.0105Z" fill="#BFC0CB"/>
<path d="M66.4629 33.6568C66.6044 33.7078 66.7147 33.8306 66.7428 33.9887C66.7844 34.2239 66.6284 34.4497 66.3922 34.4913L64.6128 34.8097C64.3777 34.8513 64.1519 34.6953 64.1102 34.459C64.0686 34.2239 64.2247 33.9981 64.4609 33.9565L66.2402 33.6381C66.3172 33.6245 66.3942 33.6318 66.4629 33.6568Z" fill="#BFC0CB"/>
<path d="M58.885 34.4029C58.9131 34.4133 58.9412 34.4258 58.9672 34.4424L60.5021 35.3966C60.705 35.5236 60.7674 35.7899 60.6415 35.9939C60.5145 36.1968 60.2461 36.2592 60.0442 36.1333L58.5094 35.1791C58.3065 35.0522 58.2441 34.7858 58.37 34.5819C58.4803 34.405 58.6967 34.3353 58.885 34.4029Z" fill="#BFC0CB"/>
<path d="M49.6177 42.3694C49.6177 50.0164 54.1066 56.6135 60.5934 59.6717V62.2595C60.5934 62.8578 61.0783 63.3427 61.6766 63.3427H75.799C76.3973 63.3427 76.8822 62.8578 76.8822 62.2595V59.6717C83.368 56.6135 87.8579 50.0164 87.8579 42.3694H49.6177Z" fill="#D70036"/>
<path d="M57.0567 35.4809C57.0619 35.5475 57.0526 35.6172 57.0245 35.6838L56.3231 37.3497C56.2305 37.5703 55.9766 37.6744 55.756 37.5807C55.5354 37.4881 55.4314 37.2332 55.525 37.0136L56.2264 35.3477C56.319 35.1271 56.5729 35.0231 56.7935 35.1167C56.9475 35.1812 57.0453 35.3259 57.0578 35.4819L57.0567 35.4809Z" fill="#BFC0CB"/>
<path d="M69.9078 33.7868C69.913 33.8534 69.9036 33.9231 69.8755 33.9897L69.1742 35.6556C69.0816 35.8762 68.8277 35.9803 68.6071 35.8866C68.3865 35.794 68.2825 35.5391 68.3761 35.3195L69.0774 33.6536C69.1701 33.433 69.4239 33.329 69.6445 33.4226C69.7985 33.4871 69.8964 33.6318 69.9088 33.7879L69.9078 33.7868Z" fill="white"/>
<path d="M65.244 32.2009C65.2492 32.2675 65.2398 32.3372 65.2117 32.4038L64.5104 34.0697C64.4178 34.2903 64.1639 34.3944 63.9433 34.3007C63.7227 34.2081 63.6186 33.9532 63.7123 33.7336L64.4136 32.0677C64.5062 31.8471 64.7601 31.743 64.9807 31.8367C65.1347 31.9012 65.2325 32.0458 65.245 32.2019L65.244 32.2009Z" fill="#BFC0CB"/>
<path d="M60.1523 38.3996C60.1575 38.4662 60.1481 38.5359 60.1201 38.6025L59.4187 40.2684C59.3261 40.489 59.0722 40.5931 58.8516 40.4994C58.631 40.4068 58.527 40.1519 58.6206 39.9323L59.3219 38.2664C59.4146 38.0458 59.6685 37.9418 59.889 38.0354C60.0431 38.0999 60.1409 38.2446 60.1533 38.4006L60.1523 38.3996Z" fill="#BFC0CB"/>
</g>
<defs>
<clipPath id="clip0_46_4123">
<rect width="30.7016" height="50.3508" fill="white" transform="translate(29.9991 12.6909)"/>
</clipPath>
<clipPath id="clip1_46_4123">
<rect width="38.2403" height="50.8143" fill="white" transform="translate(49.6177 12.5293)"/>
</clipPath>
</defs>
</svg>
