<svg width="20" height="18" viewBox="0 0 20 18" fill="none" xmlns="http://www.w3.org/2000/svg">
<path fill-rule="evenodd" clip-rule="evenodd" d="M6 16C6.55228 16 7 15.5523 7 15C7 14.4477 6.55228 14 6 14C5.44772 14 5 14.4477 5 15C5 15.5523 5.44772 16 6 16ZM6 17.5C7.38071 17.5 8.5 16.3807 8.5 15C8.5 13.6193 7.38071 12.5 6 12.5C4.61929 12.5 3.5 13.6193 3.5 15C3.5 16.3807 4.61929 17.5 6 17.5Z" fill="#86889D"/>
<path fill-rule="evenodd" clip-rule="evenodd" d="M15 16C15.5523 16 16 15.5523 16 15C16 14.4477 15.5523 14 15 14C14.4477 14 14 14.4477 14 15C14 15.5523 14.4477 16 15 16ZM15 17.5C16.3807 17.5 17.5 16.3807 17.5 15C17.5 13.6193 16.3807 12.5 15 12.5C13.6193 12.5 12.5 13.6193 12.5 15C12.5 16.3807 13.6193 17.5 15 17.5Z" fill="#86889D"/>
<path fill-rule="evenodd" clip-rule="evenodd" d="M0.75 0.75C0.75 0.335787 1.08579 1.04211e-07 1.5 1.04211e-07H2.5C2.8455 1.04211e-07 3.14629 0.23602 3.22847 0.571599L6.22847 12.8216C6.327 13.2239 6.08073 13.6299 5.6784 13.7285C5.27608 13.827 4.87006 13.5807 4.77153 13.1784L1.91151 1.5H1.5C1.08579 1.5 0.75 1.16421 0.75 0.75Z" fill="#86889D"/>
<path fill-rule="evenodd" clip-rule="evenodd" d="M6.75 2.75C6.75 2.33579 7.08579 2 7.5 2H18.5C18.7247 2 18.9376 2.10074 19.08 2.27451C19.2225 2.44827 19.2795 2.67676 19.2354 2.89709L17.7354 10.3971C17.6653 10.7477 17.3575 11 17 11H5C4.58579 11 4.25 10.6642 4.25 10.25C4.25 9.83579 4.58579 9.5 5 9.5H16.3851L17.5851 3.5H7.5C7.08579 3.5 6.75 3.16421 6.75 2.75Z" fill="#86889D"/>
<path fill-rule="evenodd" clip-rule="evenodd" d="M7.25 14.75C7.25 14.3358 7.58579 14 8 14H13C13.4142 14 13.75 14.3358 13.75 14.75C13.75 15.1642 13.4142 15.5 13 15.5H8C7.58579 15.5 7.25 15.1642 7.25 14.75Z" fill="#86889D"/>
<path d="M7.25732 4.64583C7.21826 4.57105 7.27048 4.49609 7.35511 4.49609H11.5165C11.7 4.50678 11.8911 4.52305 11.9995 4.70977C12.2345 5.11458 12.4585 5.49576 12.511 5.59635C12.5501 5.67114 12.4979 5.74609 12.4132 5.74609H8.25191C8.06834 5.73541 7.87722 5.71914 7.76884 5.53242C7.53385 5.1276 7.30987 4.74643 7.25732 4.64583Z" fill="#86889D"/>
<path d="M8.41553 6.64974C8.37646 6.57495 8.42868 6.5 8.51332 6.5H10.8994C11.083 6.51068 11.2741 6.52695 11.3825 6.71367C11.6174 7.11849 11.8414 7.49966 11.894 7.60026C11.933 7.67505 11.8808 7.75 11.7962 7.75H9.41011C9.22654 7.73932 9.03542 7.72305 8.92704 7.53633C8.69206 7.13151 8.46807 6.75034 8.41553 6.64974Z" fill="#86889D"/>
<path d="M5.8332 2.17969C5.78633 2.08994 5.84899 2 5.95055 2H10.0648C10.2851 2.01282 10.5145 2.03234 10.6445 2.25641C10.9265 2.74219 11.1953 3.19959 11.2583 3.32031C11.3052 3.41006 11.2426 3.5 11.141 3.5L7.0267 3.5C6.80642 3.48718 6.57708 3.46766 6.44702 3.24359C6.16504 2.75781 5.89626 2.30041 5.8332 2.17969Z" fill="#86889D"/>
<path fill-rule="evenodd" clip-rule="evenodd" d="M2.38406 1.5C-1.34911 1.5 4.12736 1.50321 0.0463748 1.50321C0.0115936 1.50321 2.24162e-09 1.46474 0 1.41346C-4.48323e-09 1.3109 0.440561 0.503204 0.672435 0.259614C0.823153 0.105767 1.03184 0.0160268 1.25212 0.00320626C1.27531 0.00320626 1.2985 0.00320627 1.32168 0.00320627L2.38406 0C3.41716 -7.75434e-07 3.35501 1.5 2.38406 1.5Z" fill="#86889D"/>
<path fill-rule="evenodd" clip-rule="evenodd" d="M0.697577 1.50317C0.633839 1.50318 0.566237 1.50319 0.494588 1.50319C0.493343 1.50319 0.492097 1.50319 0.49085 1.50319C0.357143 1.5032 0.209383 1.50321 0.0463748 1.50321C0.0115936 1.50321 2.24162e-09 1.46474 0 1.41346C-8.83653e-10 1.39325 0.0171154 1.34564 0.0463748 1.28035C0.0776894 1.21048 0.122914 1.12037 0.175954 1.02192C0.179298 1.01572 0.182674 1.00948 0.186079 1.0032C0.334211 0.730404 0.538261 0.400568 0.672435 0.259614C0.823153 0.105767 1.03184 0.0160268 1.25212 0.00320626L1.32168 0.00320627L2.38406 0C3.41716 -7.75434e-07 3.35501 1.5 2.38406 1.5C2.26109 1.5 2.14811 1.5 2.04446 1.50001C1.70764 1.50003 1.46925 1.50009 1.30628 1.50017C0.821595 1.50042 1.00391 1.5009 1.24791 1.5014C1.27135 1.50145 1.29536 1.5015 1.3194 1.50155C1.60249 1.50213 1.89011 1.50271 1.30634 1.50301C1.30632 1.50206 1.3063 1.50112 1.30628 1.50017M1.24747 1.50304C1.10909 1.5031 0.928739 1.50314 0.697577 1.50317L1.24747 1.50304ZM0.955759 1.00313C0.89581 1.00314 0.831206 1.00315 0.761674 1.00316C0.872777 0.817668 0.975693 0.667487 1.03207 0.607026C1.08718 0.552065 1.17034 0.511604 1.26935 0.503206H1.32319L2.38406 0.5C2.38385 0.5 2.38427 0.5 2.38406 0.5C2.5112 0.500137 2.56052 0.541424 2.58179 0.565487C2.61134 0.59892 2.63736 0.658964 2.63569 0.739644C2.63401 0.820555 2.60478 0.889405 2.56687 0.931637C2.5368 0.965137 2.48681 1 2.38406 1C1.45158 1 1.09239 1.0002 1.01576 1.0005C1.01542 1.00051 1.01499 1.00051 1.01446 1.00051C1.00918 1.00052 0.994911 1.00057 0.984784 1.00092L0.972423 1.0015C0.969569 1.00169 0.963498 1.00227 0.955759 1.00313Z" fill="#86889D"/>
</svg>
